<mxfile host="app.diagrams.net" modified="2021-12-11T00:01:45.753Z" agent="5.0 (Macintosh; Intel Mac OS X 10_15_7) AppleWebKit/537.36 (KHTML, like Gecko) Chrome/96.0.4664.55 Safari/537.36" etag="cdxmQoB1JEFbvaoWiVDR" version="15.9.4" type="github">
  <diagram id="OR5J-wmrBHdEx0KG0GYb" name="Page-1">
    <mxGraphModel dx="1683" dy="1731" grid="1" gridSize="10" guides="1" tooltips="1" connect="1" arrows="1" fold="1" page="1" pageScale="1" pageWidth="827" pageHeight="1169" math="0" shadow="0">
      <root>
        <mxCell id="0" />
        <mxCell id="1" parent="0" />
        <mxCell id="PTNWm7W7lWV_41qHVb1L-1" value="" style="outlineConnect=0;dashed=0;verticalLabelPosition=bottom;verticalAlign=top;align=center;html=1;shape=mxgraph.aws3.lambda;fillColor=#F58534;gradientColor=none;" vertex="1" parent="1">
          <mxGeometry x="220" y="200" width="76.5" height="93" as="geometry" />
        </mxCell>
        <mxCell id="PTNWm7W7lWV_41qHVb1L-2" value="" style="shape=image;verticalLabelPosition=bottom;labelBackgroundColor=#ffffff;verticalAlign=top;aspect=fixed;imageAspect=0;image=data:image/png,iVBORw0KGgoAAAANSUhEUgAAASQAAACsCAYAAADSbdHtAAAMbGlDQ1BJQ0MgUHJvZmlsZQAASImVVwdYU8kWnluSkJDQQpcSehOkE0BKCC2A9CLYCEkgoYSYEFTsZVHBtYsoVnRVRLGtgNixK4ti7wsqKsq6qIsNlTchAV33le+d75t7/5w5859yZ3LvAUDzA1ciyUe1ACgQF0kTI0IYo9MzGKROoA4M4PAFJC5PJmHFx8cAKIP3v8u7mwBR3K85K7j+Of9fRYcvkPEAQMZCnMWX8QogPgEAvo4nkRYBQFTorSYVSRR4FsS6UhggxCsVOEeJdyhwlhIfGbBJTmRDfAUANSqXK80BQOM+1DOKeTmQR+MzxK5ivkgMgOZwiAN5Qi4fYkXswwsKChW4EmJ7aC+BGMYDmFnfceb8jT9riJ/LzRnCyrwGRC1UJJPkc6f8n6X531KQLx/0YQsHVSiNTFTkD2t4O68wWoGpEHeLs2LjFLWG+IOIr6w7AChFKI9MUdqjJjwZG9YP6EPsyueGRkNsAnG4OD82RqXPyhaFcyCGuwWdLCriJENsCPECgSwsSWWzSVqYqPKF1mdL2SyV/jxXOuBX4euhPC+FpeJ/IxRwVPyYRokwOQ1iCsTWxaLUWIg1IHaR5SVFq2xGlgjZsYM2UnmiIn5riBMF4ogQJT9WnC0NT1TZlxXIBvPFNglFnFgV3l8kTI5U1gc7zeMOxA9zwa4IxKyUQR6BbHTMYC58QWiYMnfsuUCckqTi+SApCklUrsUpkvx4lT1uKciPUOgtIfaUFSep1uKpRXBzKvnxbElRfLIyTrwklxsVr4wHXwpiABuEAgaQw5EFCkEuELV2N3TDX8qZcMAFUpADBMBZpRlckTYwI4bXJFAC/oBIAGRD60IGZgWgGOq/DGmVV2eQPTBbPLAiDzyFuABEg3z4Wz6wSjzkLRU8gRrRP7xz4eDBePPhUMz/e/2g9puGBTUxKo180CNDc9CSGEYMJUYSw4kOuDEeiPvjMfAaDIc7zsR9B/P4Zk94SmgjPCLcILQT7kwQzZH+EOUo0A75w1W1yPq+Frgt5PTCQ/AAyA6ZcX3cGDjjntAPCw+Cnr2glq2KW1EVxg/cf8vgu6ehsiO7klGyATmYbP/jSg1HDa8hFkWtv6+PMtasoXqzh2Z+9M/+rvp8eI/+0RJbgB3AzmEnsQvYEawBMLDjWCPWgh1V4KHd9WRgdw16SxyIJw/yiP7hj6vyqaikzLXWtcv1s3KuSDC5SHHw2IWSKVJRjrCIwYJvBwGDI+a5DGe4u7q7AaB41yj/vt4mDLxDEP2Wb7q5vwMQcLy/v//wN13UcQD2+cDjf+ibzp4JgLY6AOcP8eTSYqUOV1wI8F9CE540I2AGrIA9zMcdeAN/EAzCQBSIA8kgHYyHVRbCfS4Fk8A0MBuUgnKwFKwCa8FGsAXsALvBftAAjoCT4Cy4BK6AG+Ae3D2d4CXoAe9AH4IgJISG0BEjxByxQZwQd4SJBCJhSAySiKQjmUgOIkbkyDRkLlKOLEfWIpuRGmQfcgg5iVxA2pA7SAfShbxBPqEYSkV1UVPUFh2BMlEWGo0mo+PQHHQiWoLOQxejlWg1ugutR0+il9AbaDv6Eu3FAKaO6WMWmDPGxNhYHJaBZWNSbAZWhlVg1Vgd1gSf8zWsHevGPuJEnI4zcGe4gyPxFJyHT8Rn4IvwtfgOvB4/jV/DO/Ae/CuBRjAhOBH8CBzCaEIOYRKhlFBB2EY4SDgDz1In4R2RSNQn2hF94FlMJ+YSpxIXEdcT9xBPENuIj4m9JBLJiORECiDFkbikIlIpaQ1pF+k46Sqpk/RBTV3NXM1dLVwtQ02sNketQm2n2jG1q2rP1PrIWmQbsh85jswnTyEvIW8lN5EvkzvJfRRtih0lgJJMyaXMplRS6ihnKPcpb9XV1S3VfdUT1EXqs9Qr1feqn1fvUP9I1aE6UtnUsVQ5dTF1O/UE9Q71LY1Gs6UF0zJoRbTFtBraKdpD2gcNuoaLBkeDrzFTo0qjXuOqxitNsqaNJktzvGaJZoXmAc3Lmt1aZC1bLbYWV2uGVpXWIa1bWr3adG037TjtAu1F2ju1L2g/1yHp2OqE6fB15uls0Tml85iO0a3obDqPPpe+lX6G3qlL1LXT5ejm6pbr7tZt1e3R09Hz1EvVm6xXpXdUr10f07fV5+jn6y/R369/U/+TgakBy0BgsNCgzuCqwXvDYYbBhgLDMsM9hjcMPxkxjMKM8oyWGTUYPTDGjR2NE4wnGW8wPmPcPUx3mP8w3rCyYfuH3TVBTRxNEk2mmmwxaTHpNTUzjTCVmK4xPWXabaZvFmyWa7bS7JhZlzndPNBcZL7S/Lj5C4Yeg8XIZ1QyTjN6LEwsIi3kFpstWi36LO0sUyznWO6xfGBFsWJaZVuttGq26rE2tx5lPc261vquDdmGaSO0WW1zzua9rZ1tmu182wbb53aGdhy7Ertau/v2NPsg+4n21fbXHYgOTIc8h/UOVxxRRy9HoWOV42Un1MnbSeS03qltOGG473Dx8Orht5ypziznYuda5w4XfZcYlzkuDS6vRliPyBixbMS5EV9dvVzzXbe63nPTcYtym+PW5PbG3dGd517lft2D5hHuMdOj0eO1p5OnwHOD520vutcor/lezV5fvH28pd513l0+1j6ZPut8bjF1mfHMRczzvgTfEN+Zvkd8P/p5+xX57ff709/ZP89/p//zkXYjBSO3jnwcYBnADdgc0B7ICMwM3BTYHmQRxA2qDnoUbBXMD94W/IzlwMpl7WK9CnENkYYcDHnP9mNPZ58IxUIjQstCW8N0wlLC1oY9DLcMzwmvDe+J8IqYGnEikhAZHbks8hbHlMPj1HB6onyipkedjqZGJ0WvjX4U4xgjjWkahY6KGrVi1P1Ym1hxbEMciOPErYh7EG8XPzH+cAIxIT6hKuFpolvitMRzSfSkCUk7k94lhyQvSb6XYp8iT2lO1Uwdm1qT+j4tNG15WvvoEaOnj76UbpwuSm/MIGWkZmzL6B0TNmbVmM6xXmNLx94cZzdu8rgL443H548/OkFzAnfCgUxCZlrmzszP3DhuNbc3i5O1LquHx+at5r3kB/NX8rsEAYLlgmfZAdnLs5/nBOSsyOkSBgkrhN0itmit6HVuZO7G3Pd5cXnb8/rz0/L3FKgVZBYcEuuI88SnC80KJxe2SZwkpZL2iX4TV03skUZLt8kQ2ThZY5Eu/KhvkdvLf5J3FAcWVxV/mJQ66cBk7cniyS1THKcsnPKsJLzkl6n4VN7U5mkW02ZP65jOmr55BjIja0bzTKuZ82Z2zoqYtWM2ZXbe7N/muM5ZPuevuWlzm+aZzps17/FPET/VlmqUSktvzfefv3EBvkC0oHWhx8I1C7+W8csulruWV5R/XsRbdPFnt58rf+5fnL24dYn3kg1LiUvFS28uC1q2Y7n28pLlj1eMWlG/krGybOVfqyasulDhWbFxNWW1fHV7ZUxl4xrrNUvXfF4rXHujKqRqzzqTdQvXvV/PX391Q/CGuo2mG8s3ftok2nR7c8Tm+mrb6ootxC3FW55uTd167hfmLzXbjLeVb/uyXby9fUfijtM1PjU1O012LqlFa+W1XbvG7rqyO3R3Y51z3eY9+nvK94K98r0v9mXuu7k/en/zAeaBul9tfl13kH6wrB6pn1Lf0yBsaG9Mb2w7FHWoucm/6eBhl8Pbj1gcqTqqd3TJMcqxecf6j5cc7z0hOdF9Mufk4+YJzfdOjT51/XTC6dYz0WfOnw0/e+oc69zx8wHnj1zwu3DoIvNiwyXvS/UtXi0Hf/P67WCrd2v9ZZ/LjVd8rzS1jWw7djXo6slrodfOXudcv3Qj9kbbzZSbt2+NvdV+m3/7+Z38O6/vFt/tuzfrPuF+2QOtBxUPTR5W/+7w+5527/ajHaEdLY+SHt17zHv88onsyefOeU9pTyuemT+ree7+/EhXeNeVF2NedL6UvOzrLv1D+491r+xf/fpn8J8tPaN7Ol9LX/e/WfTW6O32vzz/au6N7334ruBd3/uyD0Yfdnxkfjz3Ke3Ts75Jn0mfK784fGn6Gv31fn9Bf7+EK+UOfApgcKDZ2QC82Q4ALR0AOuzbKGOUveCAIMr+dQCB/4SV/eKAeANQB7/fE7rh180tAPZuhe0X5NeEvWo8DYBkX4B6eAwNlciyPdyVXFTYpxAe9ve/hT0baQUAX5b29/dV9/d/2QKDhb3jCbGyB1UIEfYMm8K+ZBVkgX8jyv70uxx/vANFBJ7gx/u/AHrbkNCoMFMkAAAAimVYSWZNTQAqAAAACAAEARoABQAAAAEAAAA+ARsABQAAAAEAAABGASgAAwAAAAEAAgAAh2kABAAAAAEAAABOAAAAAAAAAJAAAAABAAAAkAAAAAEAA5KGAAcAAAASAAAAeKACAAQAAAABAAABJKADAAQAAAABAAAArAAAAABBU0NJSQAAAFNjcmVlbnNob3RW5AteAAAACXBIWXMAABYlAAAWJQFJUiTwAAAB1mlUWHRYTUw6Y29tLmFkb2JlLnhtcAAAAAAAPHg6eG1wbWV0YSB4bWxuczp4PSJhZG9iZTpuczptZXRhLyIgeDp4bXB0az0iWE1QIENvcmUgNi4wLjAiPgogICA8cmRmOlJERiB4bWxuczpyZGY9Imh0dHA6Ly93d3cudzMub3JnLzE5OTkvMDIvMjItcmRmLXN5bnRheC1ucyMiPgogICAgICA8cmRmOkRlc2NyaXB0aW9uIHJkZjphYm91dD0iIgogICAgICAgICAgICB4bWxuczpleGlmPSJodHRwOi8vbnMuYWRvYmUuY29tL2V4aWYvMS4wLyI+CiAgICAgICAgIDxleGlmOlBpeGVsWURpbWVuc2lvbj4xNzI8L2V4aWY6UGl4ZWxZRGltZW5zaW9uPgogICAgICAgICA8ZXhpZjpQaXhlbFhEaW1lbnNpb24+MjkyPC9leGlmOlBpeGVsWERpbWVuc2lvbj4KICAgICAgICAgPGV4aWY6VXNlckNvbW1lbnQ+U2NyZWVuc2hvdDwvZXhpZjpVc2VyQ29tbWVudD4KICAgICAgPC9yZGY6RGVzY3JpcHRpb24+CiAgIDwvcmRmOlJERj4KPC94OnhtcG1ldGE+CqbkrWUAAAAcaURPVAAAAAIAAAAAAAAAVgAAACgAAABWAAAAVgAAJebBr2mpAAAlsklEQVR4Aex9aVccV5btgZznJJN5kkBCs2yXZVfb9VZX+fnze+/nVvfq1a/l1eVylUuWLNlVlgSSQIghk5znOem9T2QgwIAAgQ3UDSnJyMyIGzdOxN1xzj7D7dvEImYxEjASMBI4AxLoM4B0Bq6C6YKRgJGASsAAkrkRjASMBM6MBAwgnZlLYTpiJGAkYADJ3ANGAkYCZ0YCBpDOzKUwHTESMBIwgGTuASMBI4EzIwEDSGfmUpiOGAkYCfRBBCYOydwHRgJGAmdCAn1ffPGFAaQzcSlMJ4wEjAT67t+/bwDJ3AdGAkYCZ0IChkM6E5fBdMJIwEiAEjCAZO4DIwEjgTMjAQNIZ+ZSmI4YCZwdCTDn3s6773a7Yr34XVc72Sf4198n/f39+urrw2e8uNjv+uGIfwwgHVFgZnMjgYsuAQLRWxDqSrvdlkajKa1WS9eBSgpCTpdTPB6PuFwu/exwOH4GTkeVlQGko0rMbG8kcEEl0Gw2pVKpSK1WlXqjLp1uRxzOfpztprQASgSmTqeNjwCkPgd+c4jb7cZ6PwCMvjFoTPje6/FKKBQSr9crBKmjaEwGkC7ozWVOy0jgqBLI5XKyuLgoa+urksmlBbqRRAaC4gt4xel2QvvpmWQAHi6WJrUpzXpTysUq3jsi3X4ZjA3JtWvXZGRkREHJ6XQeuisGkA4tKrOhkcDFkgA1nnq9DnOsIc12Q3K5rCyvLEsiuS7ZfBp6UUcisZAEQj5xe1xCE025IgCSbda1Wx2p1xpSKlSkWWvJJgApFh2UuatXZWhwWNwur/h9ftWYaN69azGA9C4Jmd+NBC6oBMrlsqyvJySd2ZB8KSO1VkWkHwT2ZluarSYAaVNc0IycMM1IYCsY9Yhr/KS/KzB1oEsBmLod/VIc/eCW3DDXxCXdZr/EB4bk+vXrEo/H32m+GUC6oDebOS0jgb0kQAAhOU2uKJfPyjq0oUwWgFTOSrevJYGwpQ3t3pf77bVs54csQ06k0+5Ks9GSFky4Vn1TIsGYXJm9KqMjYxIOhZUI3wFu2xo2gLRNGGbVSOAiS4Cgwlc+n5elpUVJ5zak1i5Lq9uAttOBFiRKYlMbOs5i70XsUi8dNKZuG8fsoOG2E9zSsNyYuyFDQ8PQushJkTDfuRhA2ikP88lI4MJKwNaMNlJJWXz9UnIw0/pcHel3CVz3FkAoaNEe27Vs14S2/3SQ5qS/oalGvSXlXF383pDMTF+R8dEJicdi4gO3tFtTMoC0Xbpm3UjgAkugUCzImzdvZCOTkGI1I81uXfqdcNU7GOCooY7KC+0WgQ0a3IK8Et/5n7jVRaDkfqBkt7OJkACacW2Yb41qVwajw3L3zgcyNjqmYQHbNSUDSLbUzLuRwAWVQKfTEcYYpdIpebm4INlCSjadTRHnJgCh/0CimWDTVdIawANgAXRtAZGaeC5EaqMNBTSb8N4lRwJaP161alOyyYIEvBG5df2OTE1MSzgc1tAAexcDSLYkzLuRwAWVQK1Wk2w2K8nUurxJLEqlXhS3zykOgMl+phhFQTAiCNWqDSlki3Drd8TZ78Z3Ai9cA7FJfRKOBcQX9GpYAIMg99OWeBx64eiN6++6xOcIyVBsVGZnZyUG883uhwGkC3oTmtMyErAloCT28pIk02sw1dIId2wCQNzqzqcJttdCgGi32lKrNKTdgHYEYrp/0yVuhwegA0BqNkCDt6TfvSlOT794/YxT6kVl2+z2robZpgNEdrsJkCu0JRqKy60bd+B9G91KPzGAtEto5qORwEWSADWWxEZCfvj7Y0RfJ8Ud7IdmA7NrH9DguRM4+KqW6pJaz4nfHZSb12/LyNAoQMylv9GLls1l5NXiKylV82i3T9xepJMAlLZzQrtlyXZbjbZUinUJ+aNybfaWjI9MSDAY1DQUA0i7JWY+GwlcEAlYSbENWUusyo9PH0sBsUbhmB/AgYBFAMp+5pWS0OCNGpWWlDJ1GRwYkU/ufSqTE5NWblovLCCTzsjz5/OyvrEi5WYOnFRbAkG/uBDVvW/bAMh2uwNyuyleV0DGBqdkdGhC00yCgaCph3RB7j1zGkYCP5NAtVqVdCotidSarKaWpNYsw7Rya1LsfqYaG2k2EThZqopj0y3RwJCMDU/K7MyMxAZ6XE9PuyJRXiqW5PXKkjz+8aGUankZGY+LH6kmBKT9QMm2Evu64LHaXgW8ublrCAVAJDd22tuI/NnpmS+MBIwEzpME7GTZFNz81U5euSNm6GuS7AEmG3PT8tkCNJigzEzMyeTYJUuDCQb2PP3FpVfy/7/6T8nkN2RqZlRC0cCB4QCsDkACvNXoID6pIbHwkHz0wW80ktsA0p4iNl8aCZx/CSSTCXny5AkissEdhUAoe8gN4bwOACOeda1al2wmL35XSK5euilT49MaXR0I+PcUigLSfQBS4XCAxDgmckn03mU38jIAQPrtx5/JJI5jAGlPEZsvjQTOvwRW11blwXd/g+aSlPCgXzx+p2VK2TbTPqfYQDmRQr4knn6fTAxflsnRaZmYmJBQOLRjDyu+qSWvlxflL3/7MyK/0zI2NaT5cAeabGiFoFSt1CSTyksUuW73PvgXxCVdMoC0Q8Lmg5HABZLAKuoaPXj4rZpSEQKSD2T2ISKrOySdkRwr7X5xdwMyMjguN2/elMGhwR3SqdXqKFmSk5W1ZZlf/IdUGkWJxiPi9SFW6RBMEBNwS4WyhHxRuT5zGyklUwaQdkjYfDASuEASoHftwfcWING75qF37RCARDBhBch2HZ62UlcigQHN1h8cHLIqRCKWiF66UrkkNAuZpJuvphCX1BSf34uSJft72baLl3FOdZhtfk9YpkdmZXR4wgDSdgGZdSOBiySBteSqPHximWzBCNz9nsOZbCoDBj8iXoixSNJ2SACgEQ5GZSA6oIDDRN1CKQ8P3qo02lXxhz0IJ4DXjLWTlKh6tyQ7CC1oQUvygTwfjk6qJmY4pHfLzWxhJHAuJbBOQPqRgLTRq/popXYcxq2uAYwaqV3XukabLZhvTq9EQhGNqm6jtnalVtbCbuLoqKlG7egwppotTGpZTCXxOgMSD47JcHzUaEi2cMy7kcBFkwAB6dGPDyQNUtsqQ3t4QKIsCC7UYpiDtoly2Zusb4QXFybUMrkW32AdMZFac/vn9Y10433+0CwkX+Vx+iXmHwEgjRlA2kdW5msjgXMvAQuQ/gZA2pAgKkGyHC1B5qCgyN0nTU1JtR7gUAsaU6PeUP6I9bU5/ZHWUQI4abuHILK3t08NiWVJPA4/NKRRTbY1Jtt2CZl1I4ELJAE12X54yyEdB5C2i4MaTRelTKgjsZyIPVHkFmht3/gQ6yxrQpDzwWQbCk8YDekQMjObGAmcWwnQy/bw8beSRsBiOIocM5DOx9FkTksAmtOGmCe/OyQTg5dlFOEFRkM6LWmbdo0EfmUJcH61B496bv/44eOQfqluM2euWqpJEAXbrkzfQM6ccfv/UrI3xzES+MUlsMZI7UcPrEjtOGYTQVE2ZZCOyPWcRscZqV0HH5XPlDTO6e6N38jEmAmMPA1ZmzaNBM6EBNbX1+Xho4eWl20AxdV88LIpA/Trdo9gRN6JqSOpRE4GQoPyL/d+J9OTJnXk170y5uhGAqcogXQ6LU+fPpWNbEI2XQhwdHatGtrHnObopLpKMGLGfx01kXKpksQjw/Lbe5/JxPik4ZBOSsimHSOBsyYBzkybTCY1mjqRXZE65mDz+DxauvbX7KsCEudkQ65cu4qZbTELyc3ryJVDaoohtX/NK2OObSRwihJgATXOULu+sSrzr36SYgXlaEPINeulkJzioQ9sWvPkmm3U5/ZJ1D+k7n5Wo+QMJAaQDhSd+dFI4PxKQFMz2m1JYLrsH/7xWHLFtAQiKO6P2te/lvuf2hETarPpPLL8I3Jz7gOtgxSNRK0pttGxw6S2nN+rYnpuJPBPLgFySc+eP5UUuKSOowEuqaNJsKwc+YsPf6BNo9aSYraiZPaHdz+Gd21SwYiTAxgN6Z/8ZjWnf/ElUKlWJLWRkrXkiiyvvZR6qyJBlJl194rx/xKgxCKVVqR3F6DjFLcEtJb2lZkrmJctrjOVUKMzgHTx70dzhv/kEuDsI5wsMpFck+cvfkJlx4y4UT3ShemQNEkWZtSphwPAEOu0N7WONqdVGo1PyfDgqAwPD4vfb5XGZQVKA0j/5DerOf2LLwFqQBzs+XxO3qy+wQy2a5Ito6DaJoqjcdoiJMpym9MAJXJGbFun48aEk/VSR021m9dvyejomE6j7XQ69SIYQLr49+Kveoa8wfh0ZjEvenz4mcsvYSL8qid+Rg9er6N4P6bU3kgnZW1jGaZbFfWvvSg5i1CA3gSPJw1K1hxvAMQWypRgCm13nx9Z/SMyNzcn8TimPQJg8cXFANIZvXEuQrcIOo1GQ0qlkhQKBclkMmo2XIRzO6/nwAGvc6mVipLOpqXerMLjJuILeiQaC6PELWph9yK53/ehQZCxsvnxUMJ0R+2aaDH/KzNzmFIJUyWFQtZMtT0wokwNIJ3XO+uM95s3VguJk6y5TA9PsVhE3hIqD0Jbgnp0xnt/8bvXaDSFQZONZl26jpZs9rUBQ/C8gVPy+j1aN8nBaG6AxWGBydZyuD2rQDZq0IhR6wgx2eLq96DESAhTcY+pZhSL9Sac3CVqA0i7BGI+nowEWMSLWlEqDc/O2ro2OjY2JsFQ0LrBDSadjKCP2UqHpWPxcGi3W9LqtGSdU23/8ESqjbKMXxqRgbilLZHwpufrIFDi84W1kbgtlStWmORMIonVtHTAGUUjMcwmMoFJAuYwEeRbzWivrhtA2ksq5rv3lkC1UpVUKiUbfG1saIzJ7JUrMjAwcODN/d4HNg0cSQIEAALTysqKPPzuOymW8zI6NYhobo+0AVR9KE3LqG5HryLk9sYtjajH/VAjQl0jqFricXugHbUlncxpLW6/1y9TU9Py8ccfCx9KBy0GkA6Sjvnt2BLQHKpEUvKFvNRhHnjcbszpNaTu3YOetsc+oNnxWBLgteCrWq0q2V2rV2mlYTaRnCyvvJY2vHDD43EJBL07pk8iGDE5tk9fIsV8WVaXktLXdcjkxDS0ogFx9Du1vAhJ9IFoVO7duyfj4+MH9tMA0oHiMT8eVwIEJJa+IKG9CRbBDUAiienxeI7b5JncjwOTL3tgH6WTjErmYgO0/X6UNk5qW7v/nCetVq/BzIYJ99MPSMatyNTMCKpNBqTTRela2mdYXE63+L0BBaVGu47ZZ3Pyen5NnOKVa3PX1Z3P2KJKpSyLi4t4EPnkk08+MYB0UhfMtHM0CewAJNzDbgDRRQMk1RIAKgQWDlQ+3e0Be5C0uA33YewN27A5Gvv9oH1P8zf2yz6P9cSaPPnxsVTqBRmbHtQJArYACdczFAjL2CCKqYH4TuXWJZ3KSHa9gvnVQj3SOq5d5ay2r169FJ/PawDpNC+eaftgCdiAVKSGhBuYmtF5BaTtGpDNudjvBBG+nA7oBl7G8rgUbLjPXosOemzPuKwavI6cAsgulO9wOMDVOBSo7HX72Hu1dZrfJRLr8v2Th1Ku5WVkCiYbKgRsB6RoOC4zE3MKqG82Xkl6IyPlTAulaKNyde4qTLaoniM9rC9fvjCAdJoXy7T9bglcFEAiIFCbIegQRBi6wHIePD++uF4pV8Qf8Mvly5c10I9TAxFQ9lrYDknkDAfqi5dCwKb24A8EFLCDwaAEsE5zx+v1aju25rJXe6f1HTWkR99/p4BEDSmAKZS2AAkHjYZ2A1JaymkAko+ANGcA6bQujGn3eBK4CIBEMCIIEXQY4Ml1fSHinJ/JtdSqeCFHjCbp6MiIxAcHJQoCl2CyHUhsjYmAls/lEZuVknWEQ/AzZ3v1+nwAJguE6ACwNS2f1yfhCFzwaJ/tnfZCsOT5JDfWZf7FU6m1yjI0NoD0kp2k9l6AVOoBEiOwjYZ02lfKtH8kCZx3QCKA8EUP0csXL/SdAlByHlqMDxoMQcLWhuoNpGRksoh09iLeZlYiACXbnON+dnuMVl+Yn1cgGh4eEmpE1KZoAlYBBLVaXQGhDM0pny8ouH30m48Q2TxyaI6KxzvuQicEgTKd3ZBSPSObjraEIqwKYOe6WS2fFiBRZia59rhXz+y3rwTOOyDxxAgiLP/6+PvvpZDPK8hEoK2wqmEwEIRW41W+h5pLOp2ReQBNF+tXr1zVbdsAGQ4wbavXXhaA9Pz5PNoWuXH9moyOjYqP2hR+r0LbqqJMSAUxXDzu4qtFtBORP3zxhUxPT6upZ7enjZ7gH54D0zwy2QxI6BdSKGfF6dtEWgk8pChRQtC0U0p42NMCJPbDANIJXljTlCWB8wBIBBwu+5lC/D6JWCpGMBMIbt66JUNDg7oPP/NFjYKBnytvVuTFy1eq+cTig9CevACQDniXHiDhUIxmpjlELckND9vU1LhMTIyrKzyKgFGaeU6nS4FQZwv57qGabv/6+3+VyckpmIvNLYDTTvT+vOs8tm+73zrJdZqhqUxSXi49h3etKOGBgHj8Vn8QubFjOS1A4kEMIO0QtflwEhI464CkGkEPLEha2657njsHuIIUAInA8P2jR8j5aqo7OzoQQwQzwYgu8j6pIKAwBZf3BoqfJRIbCAJtAFh8SKOgGWZtZ8uT+MdpqDnwWe5jIBpGUfuYmmNRrJM7cjkZbCiyAQ3phx9+QFse+f0ffi/Tly4RObVfuwHU1prYbxuc7GMe9p08Gc8hnU1Ktoiqkv1NxB4FAaxItuVxVYd725oBpLeyMGvnQAJnGZA4aEneklDm4gOhzJgge6Dbg5rvb5aX5c9ffy3L0ID6kEfRj4BAp8snXsThhCNxJKKGUAoWhDMSSNtIJAWcbWk5GMc7BjLb4zHIF2ENZlA/opkJgPDgNWGulQu9Vx65YDmQ32mkWozIl1/+bwVDEt80nWwAYt+5zux9NKx8FoHQ7r99PtzuoIX9pIn45PETRGhnJDIMr18YIQxupIwwxgr/di8GkHZLxHw+0xI4a4DEwcnBS5MpDz6IWgq1Ig5wEtM0l+hu38Q2VmWCBvggQXJwFrWoF6ApbUAbaqCgWR9yu/xIpYhKZGAIoBTDegRkdgDtuLW9PrRLYPrZYn/V6wu1pVargRwwhg4UkH6RARBlpYy0jSZSOKTbQjXFuNy9w0JmQwCHTWhRLhyPmotH+98CGNFs5PmQv6KWFY5ENGyA57Vd8/tZf3pfEJBodv79xx8lV8AkAANu8QZRt4g5bC5qbHbH37ZgAOmtLMzaOZDAWQIkDihqJRy0TCL9/uEjgEsFvMykDlx6tkLhkFy9elV5mh9hKq2tJVErCB4fpx+1ggbF7Q2pdtTXDw0E//oRCOly9bxs4H0c+Kx5XYhc1uG7xyDeumxAAIIAQXJzEzwT+tZh1j04ojZCCzpIaiUwUr8iKG1261KvZCWXXpGAzyVz165p2Vd6/OoA2ATMyhTimvKIig4iPefW7dvgp6YkAmCywwXepS1RW2R1hmQyIUvLi9JAysjASBDufgAf1LjdoGQAaetqmpXzIIGTAKTdg8A+73cNLns77q+mmbrTYRLhPZlIyMLCgoLAJfAy1JoYoOiAyXbz9h1oFC6ZX3iBKgVZabRgzgVQOmMKXjNUOPSQG0LC6CZyurqbLMlhgYrFJ0EDs76wDr+lVGyt9LplgRE1KGIWiW72k0qVvmuyqvUdd6jVypLLJJArtiKZxGtoQH0aVhCNhgBiDQAY4qOgJdXAZZVRe4qxTNOXL8swEpmpSVHrY2gBtaV3LZQrI6ufP3su+WJGPEHUMfJBi3T1QT5va2+zHQNI75Km+f1MSeB9AMkGIvt994lZmgXQ4ICF+9Icozmz8uaNpOHZqoK4pVYxMjKs8T3kjpaWluTf/vhvAKCMTF66KrHBCfBDMfAnASAE8s2gBXl9GNAoqaHaEVHEBiKAUruDovXwULVAYJNDIsApLm31zQaknf3V/kGbckL7cDlhNmLAOx12Bj324W7YpdNh+d+6NBs1mHZV6babarpVSmlZf7Mgfk+/3L51A966CQBQAH3oaMwUI8BZk4phA9egUbFU7GGAnFokTdZMJq3BkZVGEa5/8FOYx82e8ZbtGEDausBm5TxI4LiARPOFJC0jorlumS7WGXNIE2Q0IBEaDbWa/UCL+7IN8kXra2tW1QEMpIGBqMzMzKgmUcDAm59/IX/60zeoMV2Q2NCEDI5Oy8jYDIIBY9BaLIKYA5BaUIeeNfzTYmQKJpYmAwjS37mNpSWho6r5sN87AUnBtPct+862SBwrzuEE9Tj0zmGd3+nvtsmE71rNBmKVUA4YRfpXl56Jzy1y9+5NmbnMGTwG0PKmhhVkEKSZQ0S4G5zTJMy3QUSQB6EtuQDI7wIm/s54qQVoitn8hnSdDcQk9cEcfDtt0vsCEjVX+zrzOvGY5LuoyRm3P+8bs5yoBI4DSBygND1oNhBIyihdQXPEGtSWqUMThNPmMD2D0dK8gfcaYDx+AuYZ3+nRYm7YEMwYghkHQjK5IT89nUfcDZJ/UVrV7UWwY3gAbWIdpDXjgaxJFKGlAB2ajNNp0lRDsCA0GZ/XifrQHgxyF8pwuMSjBfIJLtTMGEZggRVBhZBEMMWuuj+1KAt4UOoV4NOCZlWrt1EcDQR1FVNfo7gZtS0HjuOG5uTuebt4gQjQ1JqajSqI8CKmFKpgADcATNRaXCgRO6D8EQn2XC4LbSknWbz7Ycoxx4wF8iwtjj3af2Eg6DI8jBvphJQaWel3ofJjPKKTAVDe7wNI3J/1l3idyVtRi+UDhNfSTKW9/zUxv7yHBI4DSDwcn+zP5xeUw2liDq8OTCJd8EbtJIC8r5HBiIzA+zSK6oPqGcMNvhuUaHa8ganGejwuaFK80Zl+QVBYg8dseWVdXi2twNRyogAZOKKBYYASOSLLrU7AsNu0wMUCE6573A4JImAwiqqK4QCmOwTR7AVoONXsoiuffIul/RCNFJB6/YeVp8GSbN8GowbmuK9gJtcCAMkCpRbAz6o9zv6ynhTf+ccy9SyNisBCjimP2KF2A/yRs4XZPILQAKeQSwaOCYOc5T9ev34NUPPI7Tt3VFM6CJCordRB8ueLeRDlKLBXzEq1WQChv6lxSW5OAoB+HAeQWKCNtbT5sEmlNmR1dU1BideIpiYBiRqs0ZCsW978PUEJHBWQeJNvYrQuLr2R//76W0mkyhIanBa3L0w7RjUM6Bzi7KujBFhBJkYi8sGHH6rWo6adjti3J8AnMCOi+QTmDc+0CAb5VestzN6alxpmkyZX5PXzqU+OyKtgxBZsXohaEbmdSBCudH2hhIofAAQw8sIlTu3lLQjZGhHfaW6xtzsXYgpPhMDK7vKcqXFtB6cmPHt1aGI19LOMMIN8qSGZPCoMQGsikNCsIfhpAX40R22pDV6JcUytegmvPGb3yAAwncorMZyhVCprNYGZmRnVLA8CpFKxBKAAgZ5PS61Zkm5fS/kjl4dlUWDCApC5HBWQGODJErbs/5MnT9SxwOMwX4/mG2VBsOcDxgCSitj8OUkJHAeQuvBePV9YlD/++1eynqnL6OUPJBgZ1oHIYUy3urQKIpVFmYJL+vPPP5dxkLkEJA6y7Quf9LZZQFK7gIGGUETMQ4Zyq5UOSOuwDIEvYgwRFw4IiyMimNhF6/tgjjklhiDBAbyimL8sFPCoiUagOo2FAEVArMPFV6o0EBdUl41cHZpTA98BfACs1LKodykHhUHMQc6wAWpLpRwirTcWUUq2LkMwsWKxCLSliJLa1BBZ5sQCf4XHrVNooswwZ4ihmcdM/3KtCFO2KU6Q5v6AD9qLnVxr7XdUQCKY3bx5U+PAvv76T6q18brxHOxJIglMvI4GkLYui1k5KQkcD5C6svBiSf74H/8tiWxDxmc/xvzzI7hJMbkkxgEDDjfBZ3QLCzI57JfP/9fvVAuwb+TdfefAY+oHk2PXkxkRJzQhFBALhIdUM6IZw/ghNk4QqMFMIokc8CGtAwA0Eg8oCBGU3mpELKLWM8d2H/AEPnO4KziiP0zObWJyRXJXZXBLuWJN0vmapLKoClDHlEWQh62hkSdTjxymNWqoGbcuyZV5iYTc8umn92T28iWNUaKXcTcg8TOrGizAVGZgJJNqHR4ABaZEYvv9ABPKhZqdvRwVkDi7CQv8U2P961//Aq2oJR9++JEmDQeDIW2Wmix5PwNItpTN+4lJ4KiA1EBgHnmfeQDS1998J+lCUwYnbmD2C7qrWRq2B0jgMzql1zIc9cBk+0CGQHBv15DUoKCKg4VPX5K6z+dfYjDXMdBQ+TA8LAOIKfL6AppXxuRXOwGWvA/BJ4pBPBj1ydhQCOYagh85KHumylEFxMFuL+zPcRdqR7lSXdK5qiTSVTXlCFbk2Ngq27bNOGoZjF16Nf8Y86E15fbNKzJzaVLDHYIIDdjdD/aRM8T89I+fJFtICSMevEHngVNsHxWQSpiY0jIfS1rSlk6JL7/8Uq5fv444KRuQKlrL2wDSce8Ss9++EjgKIHFAWAF5z8AtvJQXr16rueIDGJHbeTuoMfS6SJFoFBQ4RgBGrNSonEivJ/bg5Hc027oCNzK8aJ5AXMKxUWwfgfmBmCKYfwxubGL6nio8XAFwLpfGQZbH/coZBeBP94EnIhhxAB8HS9hvvtgXLgxZ2A0GvW6/843mZItTDeFFj1ymUJOVZEn5JX7GYba4JR7TCg8oShlu+3xqSeIDfvntpx/DAzehJhL78lauMGPxMGDFAnrV8pUUZNZBGAQKzWGKbT2PbdoRO3sUQHrxYkEjwGlCU9ulZspyKp9++olWMdhustVR9M4A0jtvB7PBUSVwWECygYOq+lM8oddgYjFjnmOYiazKG20/OEBkE+kUdL174cJnLNLWwAIasYwG969W63D5Y5poD7iicbi7ByfhJYrDpe/TQcHj0kwj0NAsiUe9MjMZlZEY8tTgNXtfjog5c9TOGD1Nr5UbhDrDDlhXnN4k8j7HXXi+BXBKy4miJDNVJMQiUhugpNoSTshJXklDD/olj3Iii/NP4AyoyY1rl+XypQnkxY0oebz9+Jo6AoI5k0tJEjFOtWZZ+SM3NEYP5OGA2bYlZ+x4eEBKKYH95s2yamGMi7p06bIGa95COReGcOxeDCDtloj5/N4SOCwgMSaI25LDYMY5b/rhYQwYpDvAEFFzZHdn6I2jBbU9s53bEFzYVmI9IYkNtJcuQy1B3NL4LAIdBwE8SJ/ARhy4Fj/TAUfkkWuXY5hBI2B5z+jBek+OiOdA7urRo0ealsIocbq7P/vsM+TLXdEQBMZDvc/C6HBqdgSmDHilJMy4lWRZPXRheALdiIuisUhNqYbE3VIemk/qlQzGAvK7330OTWlyC2CotdHspUZZq1VR57uIsIuEvF5ZxOTaDRmdQE3tEIHc0vh4UQ4LSDQFFxaeK4nNPDlGx5PcvnbtulYwYAT57sUA0m6JmM/vLYHDAhKfzIxLIdlJs4EBjAzgix1xhluCAIEqlUrL06fP4NrPSaWBJ7sHnqb4KPLQgpZmhO04sOiwcyOTfRRAdOtKXIZg0pzEYmt8S0uv5ZtvvgFf8ko9S0x0vX79mibwzszMaIDiSRyvDiK+gNCA9XRFXq0UEDfUUBAn5+WEFsZ3amO59Lq8fPYAZl1HPv34A5mZmd4Cxu2aD+OBmD6SQJH/n579Q0q1vMSHQyhHYlXHJM/G5aiAxKRmhmHQW8dic3NzV+XOnbsaG7ZdDgRFA0jbJWLWT0QCRwEkghEz1XMAJj5Br1x5O+X29sGyX8fsJzy1raXXy/KXv34H0reFKaFvIil2FIPAq6afuswBSAQjBjVenuhxRlhnbM9JLBzMjDxeXV1FJPgzBSMW/6cnkAGKdMGz4BoTe09iUW4JIFKuNNUDt7qBiRlXi2rCUVPy9M6r3gugbNVz4umvythIDCkndzVQcrtTgPJmYbl8HjPXLr/WCpKVZl4cSFEZsCO1oXsdFpDS6ZSQQ2J5E8qmCY2NL06tTVJ7ZmYW18YCOR6bDyUDSCdxZ5g2dkjgqIDEiGK+WF/aBiTG5PAmPQwoqamGcrOvlzFbxssVaSN88tKV2xqBrekW0Io40MgXhZDuQc1oFpxRLEKwOh5pveOEex/IHfE8yIUtLi4pgUxPUgkD7f5/3Vf+6P/+v/+jHMpe+x/3O6afMOhzHQGlP71CygiCKa0CcD3vG7RHJbqRlJvDPGrRsEt+89FdmRgf0z7anBaBk+dQLBaQkJxCOymQ3BmQ3F1omiC5/RbJfXhA4rxsCwrS1H7Z7sLCvHJpf/jDFzI7e0WPz/Nm2AJrkxtAOu5dYPbbVwLHASTySLxprzHnCpyL/eQ+GJQswFpZWZNvv32gbvHIEDmjYa3mSN7IjobmOzWj2UloRgAkRl97YEL0HtD7nstRfrDJbHJIi6gkQG/WFiDdvw8z0S2nAUg8N3JjRQRTJmC+racqsgpOqYZwAT+K9LucTD9BrFWlKFnUVWI4wNRYBJpSXM0mOwWH2t0aUjpIbleR6Y+sOZDbLErn0ERdkuVcjgZIL9RcplZIsL5//78UoFiFYHR0TK85rwFlR5PbANJR7jiz7aEkcFxACgCQOIAtQKLnyC7p8Taex+4ANRtyDqwHvfT6jXz74AkGUb9cuX4PiaBjGASM07FKg5CoZv7ZKIIdZ6ei6lVj3I5tLthtvu/7XoDEgceUjK8ISAhMPA1AsvvNMIZKFekx0JSeLSHjH5ySCyDCMifUglqYrqmI/LQ2QidcUkKYQ0i5rTAK1PGaaaR2ah1hFwXpArQIRpyTzQXv2HZN9aiARO7oDnLpSJp/9dVXKJS3CvMc7arH0cofZIG6Okqm/A8AAAD//xzPkEcAAEAASURBVO2dB3sUR/b1r3LOCSEkJHI0BoyNc/ba67DBz/s1/xuc1rtOGNvgBCYnIYFyTqMc3/O7rRKDLIQkJBt2p+1hNDPd1VXVVafOjZU0p8MSR6IH1rEHhoeHrb293YZiMWN0ZWRkWF5enr/H32Z8fNwGBwetv7/f+vr6LCc723bv3m1FxcU2MzOt16zNzs6qjLuHaFJSkiUlJ9vQ0JA1NzVZe0efdfZP2GxytpWUVllWdr5uM2eT0zM2Oj5lebnptmtrkVWV51phXqZlZaQYZaz3MTY2pnb0e9sbb92ylJQU27Vrl8WGYvbVl19aenq6vfveO/7det+b8mZn52xafdY7OGYNLQPW2Ttqw6NTNjM9Z+lpKeoS/T49ZcODXdbddt2K8tLsySePWHZWhjU2NtjAUJ8lp89YSrpZanqKpaYlW3Jq8q/6qjCvxOqqdvr3zV0N1tPVY7GeKcvNKrSdO3daYUGhTU1NWU9Pj928WW+ZmRl2+PBhvWdaQ0ODNTc3WWtrm3V1deqcXp07qbGRaSUlJZaUAKSNGBr/22WuGZBy5gGpaHlAoneBqK6ubrt06bL19o9Zak6FpWcVaWBnW3JKqs1ocoJjSUlzVlacbfu2l9imkhxL0wRLTr4bjKanp21iYsIAlJGREQfAbIFjVhavTEtNTV3RA11vQAKIAeQA3NQRIGVi5+fnO8AnC5gXg+vw6KTAaMTau4etpXPYRsamLT01RQDJuckCpB5rvX3VMlKmbO/uGktNnrWGxkabmB6xkspcyy3IsjSBJ+dTB/6LP1YLSPThE0884YDDItLZ2SkAbBQotfrfk5OTlpOTY5s2bUoAUnxHJ/5enx7YaECamZnxFbippc1+/PmCxUZmbXPNXssrLPfJOTU9a6MTU5aVmWrVFbm2WcyosjTX8nLS/ffF5AgQ6urqspaWFk2UWzYnEKjZutWqqqqssrJS7C53RR2z3oAU2gnbvHjhonV3d1uKgKWiosL27t3r72lpac7E4isISxqfmLaOnhG7fLPHegfGHVxS5sFranJcoNRnE6O9ZpM9Njk+KCAetczcNKvaVmYFxTlioGKh+m8xGHGftQISgANzAmDpc/oLkAV0YZMAbYIhxT/JxN/r0gMbCUiwAQY0Yl5Tc4ddutZkEzPpVl27x/ILSjS4Z2xySqKaAKkoP8OZ0RYBUk52eiS2LGohDAAwunjxogPS8PCIpYphFZcU+4q9ZcsWrezFYkpiDZr8yx0BkNoEILceQGQLzGhIol57e5u1teklEWcoNiSwnLPSslLbt2+fUTdEYUTBpY6egTG7dqvXOrpHJLrOSASec4YIv5wWMAz1tVn7rXM2PTFoRUUFll+UYzlF6Q5M6RmpYprJSxW7ZkDavHnzkuXFf5kApPjeSPy9Lj2wUYAEGCGiDAwM2M36euvoGrTYhFhPaq7lF5ZaRma2ixiziDp6lRVn2X6JahUS1VI1uRaLamHi37hxw/71yb9sdHRUosUxF4c6Ojok9s04GMFIYEuIScsdAFJvb5/rkG7dvq17ptjOu3RIadIhvXtfHVJgRg03G+zEia+dTezZu8fydP+YRB7aUVRUZGVlZQ6aublLMzj0Z70CpdauYemUBm14RKxRQENf0Pb+njZrvP6zZaXN2NEjBy07J82aWhtscnbMissLLSsnw89b3Oa1MqQEIC3uycTn36QHNhKQACV0EGfPnvfJllO41TJyisVe0m1O+pFpKXDTpIwtFDuqLMuR8rVATClzyXYHQLp69ar94+//cHHitddf94mOfgN9B+cUFORbTU2NlZaWGrolmJK+XlAiw8jGJ6ctFhu1Xim1e3u6rK+7VSKjlOkCpIHBIfvsP5+rfin26utvuuIXJXO6FMfpqmvqgh4o0hnBjGBFjQ2NdvnKFVcKP3X8uJTzuc680LnA2gDKSKTMW7J9iG4Tqlu7AOlifSS6oUsCKOnHoYEea7l1xbKkyD60f7vqmyxAumVjk8OWU5hpmdlpUmzr3EU6twQgLdndiS8f1h7YKEAKANLc3Ganvj9jg8MzVlV7wHVHiCFMvqGRSSvIy7ADO0qselOeFeRmWIYm/r0OykS8OvHVCbcKYiWqqNgktpDtjAkr3uTkhBgJIlyFVVdXiykVOAObmJwR65i0vqExt2j19McESAM2OTZg6bMDVi5dDOX19A7YBx/92wZHp+3wsZesbvsOKymQVUmvYk38nExNfGctsw6KWKK+Un1islbukdWxeh4MsUR+f+q0LGkq5/DjVldX50wJ3ctSB21Dud8jpf+1xj7r6huVOCvLpcA0RSAzrXYNxwZsdnLQ0m1I7GlOImC+rJXTNjjSY3PJslAW5Fq66kdZ4UgAUuiJxPsj0QMbBUgoREdHR6Q7arcz527Y6GSK1Wzbv6A7GpMid0gWptKiLDt+cJNVV+b5RE8WG1juQFl85fIVN1PjTgDgbK6K9B3tYiowJcQoJusWAVJufpFNz6Vpcs/Z2Lgm7/CET/a+gWFnQzY9ZPlpMdtclueA1N3Tb3//4FPrGZi0PY8/Z9Vbt1mxWBs6rgK5JORkpbl+a2ZqzFlLc9Mt6bQuWab0Vs+/8Lwztj6JgrCmW2JNWK2OPnHUWdtKdFvUr7l9SFa3EesWOI1PzPj9ID4olGP97dZx+xcBo9mhQ4ccgBqbr9s4VjdEt+xIdAsK7gQgLTeaEr89dD2wEYCEiDE8HLMOKYzbOvutrXtUoJBlJWX4HeVG4pMm16QsbOUl2XZkb7kAQdYiXbc8HJlbegAdrFn10k2Ny/JTVlZuhYWFhn5mbHTMmppu6/5jlpaZIyedPJtIKjBLznSRC8DDZwqL0chITIxjyDLsbob0zw8/tf7YlB048oJt2lwbMSKUy7ouNSVJoJRqY7Eua755zlLmJsR+ttuWmmrbJCtff3+fffvNNzYihfvOnTts69Za27y50nVaWKfQqy13IE4OxibcBeCqmNLQsMzsgKDEN4hPd/stu3T2C8vPSbY//OENAXyuXbpy3kbGh6xsc5Fli2XOzt3xB0sA0nK9nfjtoeuB9QYkGgiwILJck76nq3fYpgQIKekFmiz58hNK18Se03uyrGlptqlUolJNoRVLJFrN4UxJOhsc+pKTU1yJjI6Go72tXaKXJnNsTIr0FBud5f55cgLM0+TOkB4IUJq08bERm5EIlDLTb2VF2c6Qel1k+9RFzINHX7Syyhq3eE1OTctHaEpi2rglzYzY1GiPjfQ3SQmfZ08df9qZ0aCAEneEK5fFmORg+PTTT7uoFnRZK2kf1jXE2daumJ271u26t+yMNFncJMpK79bVdssunPlSgJRib7/1uoAux85fPCdAGrTyLUWWI2dSFPxBbMvPLZQ7RZ0r19t7mqUz61vWMTL4ISWU2it5Wolz1r0H1huQAKMUOScCCj/88L3rRPLLdlh2XpmD0Zw4EGJIfl66gKjI/Y7QI2UuoztaqtEwHDzHcQO4LSvZ+PiE2EKBm9bzcvNsRFY4PLA7u2M2OJZqKRkFVl6+WU59KJXxgp5YMSBhvodVTUkUHOrvtvamy5aZKkfFXbVWu7XKKuSzgzXx+9Pfu5i6bds2MaMaN/UXqE4rYUahjbAgvLhxlrxwo9vFNlgdTpKwx4F+tbf+gjytk+ypYwfVb0l25dplKepjVl5d/CtAys7MFdhuckDqj3XboHRny3lqJwApPInE++/SAxsCSBJNmppb7OTJb61vcNI21x6S30wF1ElAMKvVfMp1R0f3yURfge5ILgL6bbUHLAAmhujWpZCIcfkzoeCu3lLlimDcATq6+uTbMyyRMd0KSqr0e6GsUWkCGFnbFhhSn5UWZrmVDaX2hx9LqT08bQePRAwJ58tJOSiOScQjlGO4v8VKCrOlG3rcykpLXKGOzujy5cuyfmXaM8+snhktbnufQkpu3O63TjlM4pcEq8SFYHxUyvjuNssQINaJEekb9fVtm5kbXxKQ0tMUCpRd4Kx1dGLYRmNydOybtjyFjmzfseNXoSMJQFr8JBKff9MeWG9AAiRgSbebW+3rk9+76FOz/ZA8iivcq9pFHwESfkdPHqy0LQKkleiO7tUpMCXa0NLaYRev1LtHcWVFsZUUF7rpPSZdzo0bDWIaI7JIyTExu0j6pjJncQDStES25KkeBySsbFjePvz4swiQENk2VdsszGig29qarlla8qTtqKsS6FWKcZX6vc+fv+CgVCUg3KJXjZwg0Wmthhktbl9MFkHCSXi1ScE9JlDyGLfZabHBUZubjln63KDXfyg2aKkZ5iJbtthmvA4pWcwqJTnV+3hG105NSCQcMstXP2D5K5BRID6WLQFIi59E4vNv2gMxBdWiIMZsLUnG0jNWGFwrJuLBtYti2Yg1Y4A3t3TYD2cum9x9rLpOoSIFpT6xp2QGn5DitqI0257YV+ki24M0GPFmSoG5t1s67fRPl12nlJ+drPILJTZtESgkucWrs7tflrMJMaVMWd7K5NmcJgX4sHRIQ5Yqs3+hJjL+SwODMTv5zWmTTtx2HXjKCovLFa4xKnbUbyODbWJGWfbYY/utVL5Fo1Kgt7V32qXL16U0T7ODjz1m27fVWqWsXXk5WQKBtbeMcJL+oXFr7YzZ9dsDrtzOlkmf+D6O8eEe6++8pvoPyN8qy7IUSpKRl6wYQQJtpTyfd6j0k/Vcp9VHE2OTljSbalmpBdLZlblfVE52TgKQvJMS/zwUPbAASDEBkiZQevqDAdK4PKDR7bR19tmNxm4bm061sopqj+qflR5G7oQSPUzK4Gw7uLNMVjZZwh7gwNERNtHcMWAXr7cLXDttaqRbYkqS1dVssoqyIstVfFtseFSiXaMr2SdnM905cnR4UExjxPVBWLLQ94yNjSt49ZZNzaZZxZa9Augsiw10SWeTLLDZYls2V8jpssQ9sq9cuWrdvTGbEfNKyyywnIJi/V5qj+0qV3BwbsT81ghKU2oXSvTmDim3r3cLnCbUJoWKSMGdLJF4qFduBde+t9Skcdu7Z7db17r622wmadKKShTMmyXnUxRSOmCgI/K/6mjpUZBuju3eudcqN1V5kCyhNwmG9AADMHHp+vYAgIT+A7EHK05IP7I45ipEsS+kH7kHQ6K8DsV0dXQPWdeAdB+WZQUKFWFioz9KTU2y3OxUt67tkFK7WNHqD3IQLU9gKiEXzZ0jbkUaGeyQOX5U/kNpmnjFtq2uxtnZjevXrb2z14bHTaxqTqLMrMzpZtlSDGfoD6LmmZy4FUzNyCs7s8iV5V3tt62oMMeeefopsYoKB63Ozm67duOW9GHyDi+ttTRlL5icSbJyBQajG6uWKJompoJT41oOlOiALYD04+VOt7bly8coK0OR/TIa9Ha12NVzX7vn9nPPHJdCP1ssscFGJmICRjmYCmBTZZmDQU5KRB6T+8CI9HkFuUUCsH0SNytcpIQVJwBpLU8occ2G9EAApJgYEj4yGVLK4s+zVkBCydzQcFPMYdjGZqUfkh9Qjsz9yUrcg2hFVD/iGqEiVXJGJKr/QQ4PSm1UUGqPxCpZ76YmpwQ+ky5iDfa2OlPavbPG48KwyA0NDUtBPaM65VpN9RYrLi5y1pGmSY6j5Zx8eCZVBhH1fQNDnguo4eYNF4ueeuopD9y9fv2G9fQN21yKFPKZhbJsFSsXkViXAITQl73bipXPKWqb633W0EDYDZ7bLRLZfrzUYd19Y2Jp6Q6cydIJ9TggfWu58pZ4+aVnBDDF1tXdKSbVa7HxfktKmVXMYK50RtPW2dojJpVhW6u326aKzQLXQrklIFIqQwAir0A45ENadx0S1oPI6WvEo6wZZMT1kMMkXslGcCKDh8rgzo4XKeeQTwaPUFIO9PR0u+xJoCKDlPMoj3uMjAx7cCKafxzT8LWgE4ndYbWlfF6UxeBGzsV7lvvE12O5Z0V56CQIhKQ+rFy0jY6k4wqUXIo6Uz5l8v2jetBO+o7jt2wPgEQsGM8MUYDkW2sFJJ5Xl2LXLssPp6d/1JKzKiXKKO+RAmmT5CvEhM0XANVtyZcjZK6zIwJI13LoVj7e2sWOzl3tcu/rKCiXwNxkOSYOWmfbbVf+lhamybOZ8WHuz5OpNpZK7KqtrVWmgBKPd2P8hIN2MN6iNCfNSlzWIL3XpJVrnGPtapK+akKiaEFJjdwZStRnYnlilySZA3AB2+ilNCoSs9Z6UA8U2j9f7lD7xsSGCLalHcmytLXa1Ys/WL7M/y+/9LRtqapQaMyI9fX3KB6uWX097AG3M2KlQ0r+li9mtH/vwQVmRB9xIEZvKCABAr29verEmwpqPOud/eyzzxq+EcFBi4biwPX997KCSN4n9wnpEbYqrwwpEqggMTonT37toLJv336/HsczKD0Pq7Gxwa8HwF588SW/FqAC5Lg3MUdkm2OSFSurIHFFe/bsldcqviBKvnWf9BDUETALXrnU58oVlJa9Ap9kV8g99tghtxRQPm0DkB5FUKKt4bkxSH7L9qwXICEa0A7CN86eOSMF8rjlFNcpPYbENemlpDmSWX5aZuYMRfWXOiChtwlKWtq9moP74TmNqHZWgEQMmE9YV/rK8dEBfswGehVq0XTJ0qRrqd1abVvlUV0jH6Eygm/nFzMm5+JxExLBBV8ngmfPXyCfk8Zz+XbLL94sMCLJHPmIouvJWgDopagO6MhINIfD5YMsk/gjnb/e44Dr/kgqjbr29XRY/dWzzgCff+aI2rXZvx8aGpTFsVkMrkvi25D6N11xepVq7yYHVOZe/DzZcEACjK5LVr5w4bwc0350j9HXFRV98OBjHnFMhRg4jY2N9sUXX2gV6HSGU1dXp3MOurkSELigzv/www8UFR2zI0eO+m979uzx1RM9wqVLl+zzzz9zgPrrX/8qC8VWT0rV3Nzs9wdA+JuUl6RfiABpj+2Q70NtbZ3fJ75jFg9GgAzgwwJ07do1va4KkK442LKaAaLUlzoBtrA02NdSGQNpbzi45/2O1Z5Pectds9xvDHz0M1BmQB6vY6xXsNrFrC++HO65krZw3nLHegIS92lloTt9WqlZFeS6aY9l55f74jMzm+R5j4hde3xPuYs0gNFadSye2E2xaQDSpfpet0hFHs3zoRl6zrCyTqXoOHv6X5aeNGHPPnvcHjt4wLbWbvXxt1y/hN/COGTs/eff/3HmV7XtiJVUbNUimCuLluztKGJ08Dyo14j8ocrUzif2V3hIDGqktT4rgPaqRFIYEmVrjXaAGxDgNN686CLb8WMHBLabJXpmugQBS+3p7ZYPmJTYIhBbq7fJKsj8+HVGzQ0FJAYsXqsnT550QGlpaXbm8Pjjh33ykiiKvCwcKDLPaCVra2t1L1TYz7FjUX4ZKPz58+ftyy+/dEAiLcNjMmnyO/4VuO0DEqdOnRLbybZ33nnX78NnvofqsrJMTIw7y4ENIe7lyoMWAHnttVdtu6KomXCBOnql4v4B6QE0yvvll18Un9TkLAL2xsNFrEG0IFbo2LEn5Pa/ywGX78IRJnB453uuvdfgCOeF93udH//74nvFXxPOC+/xv4XrAF36E+e+s2fPqB+z7NVXX1f/bF/on3B9eA/XhnaE9/D9at7XE5CoB8+MWC4yH5ZXH7Tcwk1qB2lqzR0i8T86dmCTA1Lkgfzr2i5u56/PMDkLTluvLE/tipNrao/JM3vavb0R26Ijes6tTdftx5P/sIKcJHv//fft0OOHlhRJl7oH38HSWTSYE2d+/lni0JAlZSoFb3aJ9FAFzv7uXJuksA+Z6xUgW6LMAE/uL/csmFRpcX6nO9csD1aY/m82DzhDoo2AEkvq0ECvNd++JlF0zo4e2il9mLIeKI0vzwC1xtiYcnRLrYI0UVCgGDf9tniBow4bBkg8REQmJvAnn3ziIld6unwThJqIMwxwRDfEMioNk+JcAAwAYUV+/vnnXZxiNYCR8DsDlknOqv3yy6/4eYAZYhksKj8/T0F+b/qD+/DDD31ipaWlOmCAznQC9UJHAQvYsqXa3nvvPTtw4IDX616iG+devXrFvV/JEMj1JSXkuMkSG5EfxrjouNz1MdXC/kgTShthY9wPEQjxkYhzBhTX8HDIvcw5QWykLxh0nA/zAyAAPb4DLIPViT6AgXFwDvXhnRWUMjiXtlAu5XNQHucxQKhTVB5AKkWvzuMFcJPjhzaeO/eLA/eLL76oLIP7Je+Xe/+FdkxpsFMvDvo1gLIrZueVlP7jKv6JBySAA6U29aLs+ON+Vjb6l/Yxnk589ZVW5wmrrD0s0aZS36e47gUPbYJpn5JDJEn8lzroK+qEjw99S1ZJOIG6+K4DBXZ/TOlEdB9eKKqJ9wqMyzmLKtXX02qNV3+wTWUF9pf3/+rZG3levFZzBFVEU3OntQoEJ6ZTNPYL1U93x+B5WhVZ/vKVQG1vnRKziSnpUckT/e678RxnpHPKFGsJOl76b3G9iP5vapc+THqggaFJ6bJm/JxhJflva75p2QKkQ/tqrbqqTM/tjjGC8Ub/cQSd5N01iD5tGCAFmRcw+eijjzQRYgYzooHnz59T5xXY22+/7QyFiYNYhtgGsCDiMYneeOMNnxDollgRuDamVJzom2BQ7777notKsBV0RI2NDX7dq6++qsZP2Qcf/NOBbvfuPRLRtvhv6A/YPeHWrdv23Xff+qBF5xTYGoN/qYPEXgAe9SMEAEB4/PHH/f6Ab29vjwDzukBh2EEJkRERjt0QmDzU8aeffvLIb8AGnQPggq6Mcmpra9UnBHum+oOjjT9rBbx9+5ZPCECJSV9aWqaQgp1WV7fNxU7uzaQLfTcwIIuGlIyAFeAI4FM+550587MvDGQmhC1SHvXbtm27yqvzOgCqX2kC01bYKgOVvt67d58vINSPcug/2ko/J2lwwzh5ZoirR48+4bo5ntfiAb1U38Z/xzjgWQOuqalawOYBafFCsRpA+lKqgF45IW7ZflSAVKVnrpARKYMRZcqVxH85QAoLZUtLqy8oAFQ0UQPziWrP84QtoEieIm+QPnv7+Vn9QLjHtCZliM6vq60xrGR4U6+2jyiShYUxee16vf3w41mNv2gxZMH3VB+OgGIcevesABJH8xQ8jJWN5xV/8BFVBn1OHBxEoVbjEQLBGIk/YiMTHmiLFbG3X+ErAmKY5ciwdippU3qT9Fnbv1v+UZWlrv/FsZWD8RcWr6WALtxjwwCJB8dqC7P54osv/SG+9tprvjJ/9NGHfn9Eq/379/sKyACD6QBGTFwm/DvvvOOrPLolJgqDHQsXv5M8nevLy8t8MqLb6e8fkAhYqtidZ31Sf/rpvxyQamvrfOKj56FcDs5HJKGT9u8/4BOSlQH2ttQBQwJcASTEAO6PyAjD4qGxiqI0j8WGvc6IooiWgA4AFjG4887+7pSf5ApjQgRoG4OAiU1bEZkQOQGFoIea1mBHREXvtXPnDr3v9AdNvXihR2OgAjKAA+eitKce9C/BpU1NzfMMTVRbA4n7sThw/2MSNWE9J06cWAAkzM6bNlU6I6W9ExOTEp2/8D7gWuoWysEAQTlPPvmU9/dyA+9OH9z9VwAk8lOTyZF7EA+2FkDiudySU+Hnn3/uOqSaHcc8foz6MklXAkgtzS3+HJq1QDCT+e9e7fJ5rn/8/e5mORjxDNCbVKo/WSh47uTfXstBWdH8umYnvz7p45zxnZMrnSwoFH9QIX0lTJjXLsX/GP09ofIGBjV/tOCRFWD7jm0a4+xOcjczxc+K8BF8rbp6xzyuDRY4OqLA4vbb7oe0Z4cYpwAp7G7y67vd+5sNA6SA4ExEqD+iySuvvOLiB8yFgY0ogGiDFYcDGkpAIAOeifynP/3ZH/7HH3+kCTVhzz33nJ/37bffaGwk+/VMAu6BjocBzASEmcAoTkuZWV9/w8vlNxTZpaUlXhcGBveg01BAh85bvCL4DfVPECWoH8yK1QRgIBUorCpbLu/or6gPE5x3Xqyw6MY6Otq9LTxk6shEhs2wFxfnACLPPPOMX3NLbA8lPKDERHzssYP6Pt/PYyXDZwPA27atTuAy4yIWuZ3xt+E3to2hrVwbxFP0QuTlQVyh3rAnympra3fGSl3ffPMtfxaUdUUWRHRl9NNLL70swN6mOqc4EKETpH+feAJAJhyC3DiRiJ6rCbF5c5WXz/dM/tUcABLskP5Nk4L29wYknsPnn33u0fqPHTrkz9tX+kVzfqGNi5rrH9UHYYGeUahKlp5RicY87Ihxt5YjKLdh3mfP/uKLDPpQxtGMFlmex6+OJb6K0FMhsVI5kMiNBahQY4PFeVPlnQU8lBU5fgJIoxLbBEjaJikAUndns+fY3r1dQcqVJT4PeH5L1iUUuOh9QwCJCgAuDGwmF4wC3c5x5fYFiD777D+uIzl06HEX2YjZQcQAxFjlEfE4EOkYzx9//IkP7HfeeVsgkmkAEgAF8DCxAR1WdiYHKw/iB3VgQvOiHqwodDIMiWuYODw89CKkHWVgLCfbhgFFeadPn3L9E5M60m9kuC6JsimzsnLzgqmctn/22WfO/gDekMoUcQQgggEx6EtKSu2Pf/yjT2T6oKWlWYA1qLqVC4if97rD0hCTEIdhctSbdqHzoYzWVkV96/6vvPKq9wFgABABojwHLJgsDIin6Hl4Fnx/6tR33i9/+QvWyRq/hjJPnfrWAfL99/+fl4cO6vp1rcgOSNMSzY66KAzY06cc1Is60C8AEmxiNcddgCTx2gFJZa6VISHKfvG5RDbpdWp2PBHHkFYmst2WaEqyfMTsfWLz7NoRAdLds5tPmNkjJhL3m54B/00o5SuMBh1UjsY6ea1Xkvz/Xn0XAOn27QiQpjQm0KvS9yxC8SBAbQBGRNWwQNyFm6oj5bEJANfl6tkVaXyw2AaJItQjHpBgSOzbtgBIHU1S5M/Ynu0yEjwsgESDeLHKISIw4EdHx3zCIzqQYxjGwAPGIkUnYjEDLOgUJuM//vF3v+YFpeDk+Prrr32g//nPf/FyfvzxR3+4dBhAcePGdYFJhjMDVn9AhgEMwAGMyNowHAYSKy/fMTiGh2N6gKU+sRA1EHOCojg8gPDOtbACroPtIB5yb0RI2kJmPsRA6kGbUGgzuRHX/vnPf7goCjuBAnMPJiqAgC6H67Hy/elPf3Ix65dfzjoo0AbYxuHDj6t/yrx/IoU4e1Gl+mRFvENcQ9dEO+nHF1540Wpra73qiMHooq5ciUCJ2KgIfNO8P7g3wEhd//znP/sziYDn+l2AhHhBWwFkngcrc0qKgifVXphhcXGJM7+wKNCXgNRaAAkQJ39QhsqG8WXJcLAWQOLejD9E/j50SADSKnVIEaBfcb3WcAydmRSzms13TWj19IzGPJsEBHaij76YRuOHBGzRhpL0VU11ldXJ1M9YDdJBdN7K/w0i29Wr1+yrEyc1Xnp83LMg+BycLyqajxEYRRs+RqAU6h+g08/TGC+TCoSFnufIorK43/F7alNOp04xJFLaEvWPDmkUHVJ7JLLt27XZRbZI5MtYeaN05rozJNCZicvA/eKLz7VyN3qFeBAABb+hhGUyk/ycyYs1DWbDgSUN6xiWNkQSOoqyuBYRjoGOCwATHZBgQjI5WBnQUVEeqM59GEw8uNCpDCZWYMpm0CPi8BtWMeju9u2A0q9leuoQJi7lsfJzcA8+B70Hkx4Xf8QpBtvRo0ec5fz973/zNgBErPiIiqEMViyACgABgGEbP//8kzMwrBQMDAYI7fdBo7rwzkEZgAmARB/QXgApvj9RELMwcA5bEAOA9E+81Yo6VFfXuDKT6wFsdHnxDIn+4dkCcOfOnXNG1tMT9S9sj8EL6wLY9u3b7+BEewNz8gqv4B/60gFJ/ZihLIcOSConPMNQRJiQgCf1ZXzx7Hl+TH66KAASSnoAabP8dQrkQMj38UrtJ2X2J+3IUgeLGkBP39HHQ9oFRN21wDTCNVPSSTE5yc09JmU5mRbvuBFIqa0K0X+Z2oqbeLnt22p8AUV8D6wllLWSd+rFHLh6TYz9h1+M3Nu5ErtZIML4oJxI2T4jcJcBQzmTsuW5fade0Z0YTXzHeEJMgyBgyOAzfRV/DJFjW+Ej5EXqF+skuR31H4lpG/DWRsvOmLEDe2rcypabe+993+LLjP973QGJSU9n4a6PqAV74WBgMhHpLFgKYMKkYKC/9dYfXZfEZOWhs6JxHcwKist5sCusboWFRS6CIaIAbIALg7hWKw5KbsqjE/nt669POPAhGjJRmDR0Hit9S0uzdCTnfBLDWurqaqXMe0YAUH3XAKG+vKgXuiPEKKg2A4mHRpmwFsQpgPPWrUafUADIm2++qUE46wDb29sjkNrpuh0U7+icwkGdmFCwIPRKKO3b2zvUZyl+L0QjxDMGNPfixTX0V2BI9wIkWBsMid+ZxLCjpVZmVlbAiHtwDQAWD0j79u3z6lIG9wz6Lxgj7LOvT/FbHZ0SOfNd2Q/jo7x7Mc7Q9sXvdwBpRIAUAThlrAWQ6CPafVKMDj+kTVsft7yiaKI5IGH2l5UNQKrSLrWcv/igr2kzzJJFiU0Sf0WPdNG4zN/9MoP3KpEZupVx+SWlyaIVzP5BqRwb6LT22+eUEkRWZhltAFHuu9S9F9cl/jMLEXPkdnOXtfdMaMPLFC00+QrIvcNIVKpb/WJSRBcqI+aBHaVqr9i5A2p8aTQpqgNjqqCwwMfWUvUaUH7tW62Y/UfkJT4lxhgBUky72bY2KcYuc9YeP7jNahQ6wtxggV3Nse6AxENjpUb0wpER8QZWQ0PjD0CBlQ2R5A9/+INb27AK0dGIZLAg9BUAF4Mb1Eb7z4BHHCTVwg8//OCTByQHiLDKAVxcw4RCVGIFhQEBSExGwIdVgzpyDqIWgFdXV+cMAaYQPzgCIAGAACUMgXIAnJqaatWnUOej9FbyKk1k9DhMAn5/++3ISugrtCYsbQU4EX+gs/QVLIt7BAU7kx2TOwpoJjts6/jxp12eB8gBewCA8wFGmCasElaxFEMK7eR3yuZZoPQGTOknrqdM+hAA4TvawfM7efKE65wQlelfDs7n/tNynUBs5DN9jK4GUZMBiPFh79693gcMytUctJm60jewI3bPWIpp3Y8h8Yx5jpR1+rvvHJBKqmTRLagQ0EvZL/cpNkMsFSB5pkj5IZGrCKawlgNAGpAfErFeOA4yWTM91iueYWhfuJZ6O/fDJ1aUl2p/+etfnP0u1b571YHnA0i6Y6TcL9o6B+XYU6bo/hLlVbrbD4mWwNzYiReP9KPavKDKNy+A4d3rDst/3zs47pkj2RZpQmwQMZVjUPu0NTVekaf2nB07skfe2JX+7NLU16s51h2QGPSwExTJKFPT0lI91IMJEA4mIMrcH374UZNx1nU4AAkTlgGOQvXChfMOTFxz7NiTDkisJgxwgOzixYv26aefOuAxaXFsDMpcysfyhjK5vv7GAqNgIEYUVFnq5icWiul9+/brtVeTbq9PylDP8E55TGxY39Wr17xMJiWsIqzcDBJWUZggwEp7EJ0ADura2NjgbA5AeOopbdwnek0/MQEpH9ZEPQBHAI3+u3jxgk9G/KQQSaHoACIv7oFVjv6grYD0UoBEPTkf0IIppaamCHifczDDysY116/fcIbG9/Ql/Xvp0kX7z3/+4/2Fsn3btu0Cz0lvA+fTj7Am2gM4wAxxU0D8fOGFFxyQqDOTbTWHA5JcExyQ1L9cz2K2WPRbCSCFcfaTFjgYUn7ZTsvKQ7+oRWlOTFkTir3NHttV5o6RiDV3PKtXU2t8fTSmBEqEjpAvqE/3Y880wlH0eBeOzlZZnX/41HIy5uz1N16bF8fLfCzFL4QLFyz6AwmEhYnxceKrExKdhqywQqlfS7Tnm+/Ai6Oubjh/Txmj9UxMGTFlzNhGLNuDJWoDiC7fJHREWSIF6qFt/b2d1nDjvFLRmj1zXDGdW6s8uR75jVZzrDsgMcBhHkwqaDxiCCsmDCUcdNgtKRthDjCiKu1jVVtb65OYwcLkYoX+9ts75n38lQA1Jjjsit/xZ2KSomdhMsOgMHdTPt+fO/eLT0QsEYhMXIdIwmSiHHQ06K4QiWAtwYQf6hn/ziBAlwBNZmJT/6GhmCjrhJ8GMAFQlEHYCOAJq+A+rGboq6gzKxzfM8kQcQBGvL0RAfGHAqgC4yAYmfIR9TifvgLwYTQwsABIkYWt1dtYUlI6z/SqvV6UjxgEaAEYeIrDOAE0dC20ARaLUhoApY9pKwCGNZQ+w9GR50cdENUuX77iDKm2lhjAApUz63WmT+gDGBjPk7YAsKs54gEpS2XBkNYCSNSJcdCpcXBeOi/SgmTkV3uIBdHw0vC4mIUos6uO9Bw5Sj2SYRkSs9ZyMDFhZW3y0Tl7tdPTc0RK5CgZPjmwR7Sx4pCSlg10NSj9iLnOcqv6lW2JUG6HBS4CpkBhImQJoiMqA55Xc3OLxmCjEr1NWnpOqQcNk3kyI0spSLQoih+6oyY6K7JKEu0fNr9cS/u4hprgf/SLZzPQtk4yaqSAdrpXr7bWvnFZ/oFKRPfi80/a9tpqzxUO817Nsa6AxACA7mNFw8TMJMUEjlKWiRp/hPNYvZmklVKmMfBZcZmQKFUBJBqEHwwTHGUsnc3DuXmz3hkQOiTKZpIdPnzYPae5D34VWMIon8kIQPI3Ky+TBPFk+3Z2Y6j1ycZqDngsXolDncOAABQQAygTJofuiAOmhQhHeVjscFJDtAP8xsbks+Fgpj3lNUFGRpS7Rk8XdgMj4Tp0RIAEdWMVpA+4D3Xu7OSaUe8L+gfQRVzjHpwbAAnxE2B58skn/XfqRd8iFlJvAIPyqDPKbdqKyLmUTgz29u233/q9UU4CmAApjIU2hBfgyHMHfDiHxYEX9aR82r+aI15ky5Kejfst9Vzux5AAJNpOW69fUyZFreizqQoQ1m4fWVnSJSplLPoPtj6qrsyVTifXyhUJT8T/Wg+eaVffiBhEj4dWaJj6LMbcPtDXYQ3Xzlh6itxV9u/ylLLd3V1+K8bAZi0E1RoHjAH6DD+76Ig8nOlnxjqOnhcvXhI4zDlDTdUC3nirWTm3JUJnFmsL62LfjNKSFP0g3RGbSe5nJ14p7fPvsxPv/A2XfAOMeM4wwB8vRvmQnAEKwJO0zTcJ2q6c/06AlGyvvfKclPZbfbyu9vmvOyAxAGBIrMp4M8OQmEBMzviDlZ4JQicjVvAgELsYyKzKiHSIOogAAA2TBoCjgXQMq8Qvv5zzFZtJxeRED8T14eA86gHjgqUsBiSAA0YQ6Za0ZN3noLzAOChvKUAKQMEkjla6SClOG1FUcx16punpGQcjJjHsg3pHAzFaGe++zxWJdkMOYNQXcZBBTH8AsAFkhodjDgyAN0wp/ggTuF3ZE+vr7ziSAuaczzvlsQDQTp4jsXudnV0uqgF0iGgALwyKBQUWxXkc1Iffaf9amFGoK4DE4jE6OubpOB4UkBhnTQJX9mMbGlca1eQcn7BExU9NyfqE1aswwyq1H9vWygLfSjvUZS3vbKp4W7Fe7PTa049+TrGI4wq2HeoQM2r0DI7PPfes+jnZtynCMbZYke/0X0UFfnIKOtUYd12WhgKgylgZH5ef0Oi4M6MLYv55uTn2hzffkINlkS9I7GYypHzhc8nZUY7u9BztHquMkUrJ+8S+CrciIj4Cjms58LFCLG1RxsgfBEhE/ecrt1JIYdvTKUA6d1LfJdnrr78sQKr18b8SMTS+PusKSBQcJhKMghWS1Y1BxWCPP1i1GdhMFM6FGQAMvCNWAUp4X0MHmayUQeNCA7kO8WFycsrLhtbDoJa6D2WFVxDZuA/ncx3XrBTJuZ76RvUbcoZCuygD0Yt6RiJGfHvJghesNVFdmPT0DedC1alPaBvlBWbDfYjf43rAgvKpN9dS59BX9Dv1QmeHwpzy4g/Oo8/pN1Zb/uZ67g+AhPJCHSiP+46PT3hdKI/nQzvDPQFZGBoH1/M79VsLMwp1BZBgZwAtoI7YRtmLqX8AWJjkUmb/wJAYY70CzfauAaVfVfDxbIYAoEIWPFlHxaKSk+fUVzJ3K2vk3roSKX+XDh0K9bvfO3qkIcV7tXTK0tzQbzhWdrdcsuw09k2rE3uWSVwLNCqELxTS0t7Ra4WlCj+SfnNsuNdmpsSEk1DIa+TrH+LfJvQM0rMVUVC5Tc9t1m433vDMls8cP+I+TaSQBdiuXK1XfJkS0WUUW0ZOsXRKYkabS2RdK/F8SJRHuWs56CvyRzUJkM5c6XIdGcntsjJxik2zvu4Wu6YUtgXawfbV115ecNlZ7b3WHZBWW4HE+YkeiO8BGE0ESGPa/VWAJM/yBwEkAHNUoNTS3qNtiZpsZDJZ21FvU5rXSPcF8M9IO0sCs8N7Kjy3dnx9Vvs3eiTfdaS1z7470+DWx7GB20qynyNjxjGlbK3QxNbuHa1i+OcvyZdnXK4IVc6CujtuOygp16Nvs50tcB+X82ybNgrI0DZBuw8+rVi1QoV4dEj0m7EagU11lSxnVZW6XkkMpUZo7+yzgeFZZcZUiJJE59oaMeraMvdBWm1b4s8HaAmsJaf2JSm1sSjmSbzNUAAuO4rE+sX+b/5khbmp9qwY4BYFs7Po8lrNkQCk1fRW4twN74H1BiQAh1dTU5t9c+pnGxyZtdodbBRZru+VEkPME0fGO2lIlnaQXGnDEW1gkDcbmu3zr75TCtcBq6tWHiLtm4Y4i1Hhl7OKbezW/mvpxZ6Mn80iqWNM+aenxgcseWbQt0FCF8c2SN9+96NSwKbYgcPPKztklU2KvY6Pyrgx0O46m107apTwTDo7seO+PtLH1DsoogogKyW72bJt94McuEiQBrhNOqTGVm1QORq5NQiL1F7lRVLe7IkhOSgXZNh+qV4QQWlTApAepNcT1/7uPeCAJDFnVKJqnkTAIM6uVWSjQVx7u6nFvvrqGzkvTlnNzsPy2K70yeIbRWp/MPyRju2PPLbX6o/E5EPERoS8LdeFS5eueH/u37/X3TYQk9ukRzx37pL0QXL1qNrtO+iSwwhwjPZlG7SUGVmnJTrukuXXd679iJ1rZ+ygNoqs2FzrFjTyD3Uo+6TNjii3kgwKm0qVx1q+ZQIHjBwjEstRIRC9T0bK+xlt7vfgyYPUjG5MVjZSueChTb6n6SnpyeSlza4qRTlimqV5YkfVrgZIMKT79Wri94e+BwCkWzJ2eMydFOjBFL5WQEJvwrWEfnz33Sn3RypzB8ly6Y+UrE8iFv5IRVrZ8WTeLGtb/AaIK+2wMPlQ9uOu0SfdFlkfSNqPmAZQ4czb1TNoU6bNKzK0eaM2q8zE4ieLGiLX+BgbRQJI/e7IuEvuI729/fZBHCCVV24VkLLRouIgx7Wt9bCU2RKX2Kdt1/ZqAVChvLVlYZMuruFmgzSwZtu2b3PLJ6wFy+5ajm6xI0Q1PLRn5AxJHVC8Dw/1W5ucPbMUVHtw71YXIUMM22rZEfVKiGxreTqJazasBxyQZNoek/Idix6AlCpF+loBiYpyLdbcc0qnwsRKy6mSTkaKX+0+Ivu/h1dg7q+q0O4c2scMfVLuKnbniGdGJHLDaVFTVm4l22U9LvJJ1iufvJsCiMERWfbytmhH12I5DmaqbuSTktjjgKSQKgBptt+T8eMbR+K1Dz76VHqhGXvMt9KuEZuSK4AQAe3M2MiATO5Nlmrjqj9MSQrseXeQmzfq3XCEtRswQoQLTGlxf97rgUYi6Kx7oJ+71u3WNZK8pbq1juT+7fI/+tFFx5deeMq2a885ntdKjUSL75sApMU9kvj8u/YAgNTY2Ci2IECSK8iDAhJgAUvCegfz6tSGkYNjchxMyRXgSYcjJ0l0HRzJCh1hj7YD2oWEGDeuu98RmBGuF2fOnHX/MVJ34CYBCGAhw2cNP7IcWTO579BEtmLPZIVV+Zj4EX1M+9zDeGa1lfZygFRaUePhICjOeSUnKb9Smiyws0pLM9orh0vtMIIPnCyt6JRgSvQnR11dreuxqBf9upKDe7BjbaushhfrtV228obDIHH6pP5d7bfswk9fyLqWYu+8/aZcUnZG/Xb/rlvy9o8MIPHgGTi8UBrymQOkX8rMzHnI7GGwMbjCefy9ksG2ZI8lvtzQHhiQEpgJBEMqLAKQohQYi1fclZr9wzhx3Y6cQ1tlZr95W46hM+lWUamdOnIKNJai1LPk2Cbp/xPokrSx4kp0Sbgn9PbIWVa+bhEzMg9exlWFcQrAtsjBNUniYa2S3GEt69emvLGxOd8+G/cEqA5hOWNSeANI6XNiSMU5Hj2ADgmG1B+bllL7BUNk8ws04TWMPXq/VOEvydIlDfa0CNSIS0zVzrEFDj7MAXbIjclHLTdHzp9KL1Jbq/3f5Bm+EncXwKhbzp44RN5qHZIyW7m4lDGAviEzZZ/YWf3l7xSbl6bg99ddPAx9vpaB8sgAEg8XEy7+MQxGfG4YpJiE8ctZ7McT+dHE/Hw6KPITikzIAZjW0mGJaza2B/ArcoakZ1zk4RTRZqEPCkhh/NyWte37H8/59tVbt0fWtjkplMcnp6VonvTdOY7slVVsk3yzfhUce3fbGVetEtEI8u4X8OD9Xyr24cxI4xRmNCbAIryG74nVzM7Jk4iojRnGBFbaQxtHysGY3uXViPPrjAApO0mJ+SQ6IrL1SIf0jw8+1Y4m8mM69JxM+bXuTY4HdlGBIvPzMiQuaWPSJPkrSQcVRQTc8LxMWwU8OBwLt2xA/drQ2OAbO+Jxj8VvJQ7BfcpeUN/U7yEjsZEomDaV+DwxusmJMZsYVX72oWYrVXgKGTXLlVDwfwKQACMc8QiBCOEXDFJWotraOkd82BLMhw7B0sGA4B2WROfjkMbKEJz37h5eiU8PQw/cDUj3zjy5WoZE2xgbzQKQU6d+dGtbRfU+yyss1/dRfiSi4nM0ubdpJ1t2IWFTxWzplpjQiw/GGK/r128ozc7HAp4xe+r4U1Ypz3s2hRyQqMSecIxJIgKIVwsOvpQFAAJGpPPoH1KY04CSCfYP+pbbSZN97jfkOqS+Afvw438LLGfs8JPaALV2m/Rbae4WUKr8RnkCJuLv8MBmnANIxEziKEkcIPckGgAmd0EZNGBMO3Zs97mwnOg2K/aDMyRKbIJpCb2RUOt9iDJ7fCxm/dIfpWrDy00lyhNeUeRthxz8TwASHrcoJqHF5AsidARAqqurM2LdyPETHOhYDW/erFe0+mf+zmfyHD377LO+6qAs5dzE8fD1wEYBEmDEq0fi1eXLV1wMsbRiS80s1AKl1COppCSR7KRzUlMjXdK+bVH+IL92UVcx6QAAwqT+9re/O3t//fXXPDaQMYqIWFpKimRtzihAgCXB4oMymXu5Hkie1+xUgo6pXyDS06NtuDtaPSRjp0KEYE2ff/6F7i4P6NffVPL9naqfMnXykoc5Aa6AEXWkTgA1YmKTxMTLly57HXcpNChT4x0LIHOBehEqRBgSXvpLHZMKq4Ex4nd0rVHOlgLODOmkyIbAvfq1A+/NqwTTJtsLzz5pdQqmTVP7FjPZpcpe7rtHRmSDHREHRrZC8iy1tDTrgWR4XNfr2gk3pMJAHGMwkFPo73//uwbMZX8IBN+So5u8SqwaDA5YF0BHUCpmZg7YEywK82iQsXmInEfcFg+d3zlga5QBuHE+QMf1YXCEAULduZ7BwsE5nB8oM+eHI9SJ81nVaA/34xwGGmVyXTCH45RGLqZwPucxyCg/nEPZQYSl/FA/2sULnQS5yukXQkl+z2OjAYmwmTbiCTu0j1iXTNhJWVZavkWiFLGWcxE4KLkaGys+vns+LYkYCLFn8QfPgRc+P2EDU7bbylSWy3ZtnMDkhIkARivpV8YsbQc0GmVlTBazImaRsXNC453x+s67Ub6v+Hos/jvUi7ny889nfMzAhBjL3IOtjYgvJd0NGSPupdweIlVtl1LXCJDI8TSmPsnKkO5onokRKtJ47Xt3hER3VFdX62Mp6GwX12ulnx9ZQCICHpNqbW2tgwz0FpGMjgcoLl68YP/+97+dUTHpdmhliQckOogBgFj3888/eYAq3yFbk38Jky0AAyAwmRl4JLfHgY18Rjx4djUhxQqBrDC1Q5KhWXVYBfkdegyrYxVFL0KdEQ+4B+cjyzMoWFUCSFAn7nVLFiGStBHP9dRTT6rMVN8FhLYAvnjxoh8AiOrr61V+dA31ZWIgJoSgZsqOgmWvet+QE4lyCGClbbSJFfPw4SNef/rh9zruAJJSHM8vDPTn4pV3rSIbz4Q+u3VbW2z/dEHJy5Jtx56jyie0yZ0K3XNb4lSeNlbcWaNMCBLdivIVn6jJuPjgGRO8TVaGpqZmD3mhr+vqImsWz5bFgzEZmNHiMsJnwAIxywFJz57zAyB9NQ9I764AkCiPerHAstB2KsXNbQUrY22jbmxSwLgjGJ2FdKl66XIX1c5d6/KsBSjduRZQntMCSKaI0ViXDfc1uL/UE08c83HDfXk9yPHIAhKdTS4j0pvgW8HfTFQGLhP0xo3rnsKESH8GOSIbgERGAQYJ7IOJH16UR2eymgFG0WuHsw0mLQD3t7/9zVkOIiIrC991dXX7Q2Xys/EfQABDYaUAGLk/FB6z8KD2veJ72AuZKdnAEd8Q5G4eOIOSlY0sBy0tzRrsMdWnUIB7yJkYgMgqjuhZh8VGAyrkOuJ8clFxsCKSBoWsjQAkrAfdApk4qQ9gRD+x6vIOIHEeA4sV/fc8HJAaZPZHqa3nSl8xadYDkGhXmDRNzS32nXRJA7Ep21SzX4GoFX4fErchrqSnJ0tRm+luAFsq8qWzwWfo1xklMa4wPgClM2fO+vOFhbMxKXWnj1dy3BOQNAYWAOm9+zOkxffy/GSXr/hYBBgBJBZv5sxSB20nLKRFebMvycyPqBYlmpOZX8fE2IgU5FpYZ0YUt2a2qbzQxxqL44OCEeU/soBEviNyZdOxrHisRuQBYrJ98803AopOZxAktELMA4QAJFYHBgkTFOsIuYoQ5+hQBldPT7fSalx3UHn55ZcEGFu9TLJf/u1v/+dKcu5LKloYGhkJEA9RAgIAPGzAEdEI5SL34UEBHoAdsUyUD7CQyC0wGSYcYARAImZyDXUlaT2rOik5qC+U+xVtc8QKB+ABSLSBxHbQcHQRMDImMYwNYIX94IcDIMEImfT0x8GD0eYBwkJvL6AEI/s9D+pGHckyUCKr1XoDEm0D/PGkxlGxQ35Jw+PK25Qmv6TCMjkrZrvToSt1BdTFsmTt2VbsDpNLeXDznBhzAAp110eNi0h0h60uBtJ79e1GARJgyRgJojrjkAVzKaCk7v1D425VYzPIISV/m5JXNo6QITf4YF+HNTcoM6TSjDx57HHbWiMnU3fwjADrXu1b6fePLCCxqj/33PPOLhjATLCXX37ZXfA/+uhjl70PH37cB/aJE1/5hI0HJCx1339/WpN92kU+9DQMCjI7AmgwoPfe+5ODAgOYSf5///d/ksn7xWwOew5wKDUPGx0CIhETGuU6E50DpsMKxfWwIJgLeiB2AQFEYTmUAbML90D0YvNGdvAg0yYOdtSV3EtsMoDo9sorr3h7SWIH0GRlZXrZlIeO5DvlkEb3AGhS/oED0caZABKAxzXUBaa1dWuNTxpWT3JYM4l+zyNYR5lIJdJ1rBSQeF67d+9yfdv09IwzFdjo4lWbfuYVAKS5VdtR17cqd1Cqbararp07In2dMwXFuGFlq6vKk+iW52lgc/U5KJHXs582CpBWWsfpae2aohAaMkJebexViM2Y+gmFeZQVcnZmSj5OozY82Gn9ndoFSNkLnn2WTTHIVDDt/b3Sey133iMLSAyK11573ZEeYEFR/NZbf/SOCfu6MaFR+n6uvDNM5CCysUIwcZnQQVGNCAfjYPI3Nzc5uLz33nsCpL3ONkhGBkN3DoNiAAAaI0lEQVRipUGJziRnUnMNmRURyVh9YEfHjh1zxkXZlAfzAQSCGFdff8OfCeyFtLVHjhzx3378kU0LlFpCLAjRCVENBoj4AiD961//cvGAVL0woDNK8g7AcQ7ABahSP8QygBNmha7qjTf+4P1D6l3qyYQEPEl8F0Q0H3gqk99+z+NBAAnwLRYLndFiFVLYLgYk2kYbYTX0D0Gwp0//pORms1az/U7QrSck0yQ1dQdWN3JR76otdg9uzOzoU9bz+L0BCYsarCh6yaCiDSDxIGec0dbRkZh1ayNIm1H65CLtEK0QFRY89Kz08VL9vJb+eeQAid1IvvrqS1cU/vGPb/s7n+mQ559/wd+/Uq5uPr/00ks+6D799F+O9gASublZdQEkdE2ABgOTAQGrQNQjHw9iTthWCfbADijokCiX/eHQE1AOSuvvv//edQgADgprAAPxDNcEAInc2ZTN70w4FNwwPPROe/fuc90TqwzbNgFwiGPogKLMjyV+TwDxn//8hxhZTLqeoz6hvlOwKEnUOBdxjdxBHIAroiSghI7t9dffWAAkGBs6JeoZRLa1DJyNuuZBAGmn2Cn9Hm3WGLEjPa57HgATz4dg2M6emKVlV1hWbplYUpGsZFgbMc0rMdnklCdEq9tS4Lmpi6Xk9v3N5s3t97zBKn6IlNAKVNWCUS/GzwLB82ecntTOuSx2b2vnZkIz1vPA14hcRz0Do3a7bcj9jdiNFrcEwkNYnhirI7E+xczd0uYEpkRzW5Vyt+yeot+D1O+RAyT0NSdOnPBJxU6vTC6UvTAFJjgH+hZEOJLgMzk/+OADn9QAEjqeaCASlf2LGMWEf1dWxm4UaQ4sAFxqapq2tn5LA2C3fx8AifLZFojJHA9IsBJAhYmOcpt7IJqh9M5VulEmCuZWBhhtoL7UER0S58NsYHJMyNraKC83DCq4GABIH3zwTxcRUYYDoohmXEdduC+AxIrG6j89PaVzJl0HhdWN8/DfApAQbzgfcEb39jAdawEkdDeMA/rrjnKVVXv5lvGMWIh6tad9Q6O2pD53xWPMdux9wopLlZ5Ek5JFhEkr6cU3W4Qpba8udPFtPZkSLBh9J+MI9QBVR4dITN/pU6fk5JgpCeAtjdUdyzdqFb/SPyE0pL1n2LNcjkihDSPyNLoCxWmNmxHtSjupPE1zctgsVUjL3j27rFwLIKBJH67n8UgC0smTX/vk+8tf7myt3dLSrEmIT020KSWiCCIJli38kZikMCpEmGAV+VnmfkAI0S5YrWBNMBEGIgMAQEKvEg9I3Je93pjYMCSUzVhZuAeiEMp1Bvonn3zipldECYAHyxpM6fTpU1J2d7leifqwSwcAA7ODscGQACUGJIBEuYhsH374gQPa0aNHvX4wM0AQ5TXnk1scZSXgQ/0Ra9FdsYEAui50SAASQAogobt6+AApUmpjWl6pDok+g0HQx3cAaWXTBMZLX91SDqYTJ76xPgWPVtUdFCBt8TS3pIcFmKZ1Do6MhGnUbM7zzJK4A5AlYCnr28rufucsnhl6xTalSbl0WcAogNqs3XioW7MWWFJ6PP30cc/EeOeqtf1Fm535SWfUp4yV+Bt1KUf2gNrOPmvsVBL5G8nRUh7ZQ30dJqFNVsd0eWQXu6GHxZS6UdZ6Ho8sIAEGf/3r+67HYUUBMOrrbwqxCW7c6cplFMwABltZM6kBGKxmsJTW1hbfNy4nJ9eVxPj1wKawpgEkTOZ3333XfXpgHdeuXXWRjc5fDpAAE3RIAA+6LN5hQLAUdlYBENhwknqVl1d4PWE8PFwYDJSdlQdABXiIjwLcsNgBSIAp+55hVTt79oyDD4AHoMIQmZiwL86jHMAnKNMBJO77aADS8lY22odeLuj92JCwbhvbMs2bn5eaKAwOHYsnkbiUe0k3NDR6CliySqZmKhRiC0ruIp2viSdQQhREhgGAihW7tV0iXIWUu0tZ3/xGq/iH58/i0t3d48GwvCMqwfyKS6S7EpNlTKD/fJCDtiOOxeT42CFW1NkzKjAadZ1RsiuxyUBAGIpiRxWrRr6l4T5JHEpNu2/vTolqm1z8Z5Fe3I8PUq9w7SMHSBcvXnARjUkFIPGQENEuXbrojopYBmA8mOABB5gLgAQDefPNt1zpzAQHkLCCcT6AwMRnkKPfOXXqO+90dp5FjgeQVsOQACTA7ZNPPvYJAzBWVW2R8rnYJxE6CxhLACSU2pGeSlsjS3+FqwADMeiQGKy35Cx3QtZCKPLLL7/iykTY3MjIsAMMIiF6r3R5r7PSUmcmJ9/DshCFHgVAisz+Da7IX87sz/OknbCjZimmx/XsWLUzleMoOZUNExYpnR1UEEeSHLTpn/gjAFx3T7+1Kv/2TFKmIut3yD+pfCFvkSu6Jb5hjcrJSrUtCsAlVzauATAnN49L3JnHvfjiV/x3TDpCjCC0i8UsS1kfa8V+GZ+MibVaQQEPXBnYYRcwwopGnFqf3mMS07Reu/MnYMS5pEIZHlI/TAxaevKYVZQVOGOnHvy+EWBEJz2CgHTR92tDFHn//fed8bDqA1Qwj0j380cXRwCtmzfrZa4HkCZ9y258jjiQ1dk4kW2BYBs5OdmawNEWTIAS4PHGG2+4rxBi0I0b11fEkADI48eP+z0Q5bCoMbgAFSYMA2pSSlLYC5ZBxIygBKcduDD8okRiKNeZNLnyC2J1xO8KqyCM7sUXXxDYVjrT4xrqi2MnLDAlJVWiZJYDIIp3HC+5L3V4VAAJ1wT8kMi2yDOkH+iv+IP+pL20C2DGU7qtvUsTbk6K6RJLTWfHXLiPkxp5GE9IBzLoymgi0imXMvwEnYNlDpDj2ZBYf3omxWa1ZVJWriL4y6stS6ElMCVPWKaJzeTmYoJbt1TkzgOTlN24BQiR1gpK03JDYcGckG6Tv1OkWEYagPnSD2vV2WB1nJDTY69Es8bWQesWEE0oDa3rx0T7KDeAEfrH4SElY2vTeJMSe9++nZ4el3FEPTYKjNShjw4gwTgYfOzWCbNhMr/wwovOgmAbTMqffvrRJzw7sNbW1vkDhD2h9KaTn5AnMmINDxbRiYkPg0KES0tLdaUzv6F3wiER5oIoB3th1Yo8pc13eAVIgniEyEh5TBBWEJTFlNfQ0Oh+TYAMqx1+PgAfoMJqxySDxYX4OlZ86oMlEcDE4ZF7YCljBUexnZub4/5X6J6oK6Er3J8UrbAlmEFBQb4DEXoudEX0FeINeijEOe5NPWu18sKiHqYDhsSzdE/t4nsDUqgz7eIZX7mqHYXPXJBOZMIKy2uVdwjRTYDDkaRVf2pY6afbFQaS7kYMkqixGs+Gc6IzHUx4LqPaB4293Gbm5EhYVKnkamwLro1KNRaYkB4Qq1xB6WlKiKYMk+wOW5ivdCDajJHtgQg1YYIn8Zov+7d+o57oimB0o6orHtgk6meLJmLVOEKCOFVTYqnOHVUUf1+XTSqtSOrcsNLvKlJARhNAfK1guJp2PzIMicnOpGTSYtJmMmK1YnIhe/M9Ygm6H75nBaQDATLAgoeD+MJqw/eUxeTkd65nEDL5+Q02BWvifCYzv7FqAYgcTOawcqOMBGwoj3vApvDNoBzqBEiwWSCASJ1hMLAkyuQc6s/5gF5oH4DIhFRxfi7nAFBY/1iZX3jhedeTwRK5J6Z/zMa0g4OyaCflUn/uy+pPPXkPbaUNnPswHasFpEgZrIj0GwpyPfG9Vn7tIFJzwHK0rbSDjfowSX09N9Fv00M3bVNxph05esQXAsYUuqH4AwChf9gt5MaNaFuhkXF52ivlbVWNdpzNL1afi505Q5NuSRe7UpsZLeghN/eOLYXur5SpRGZszshz/q1BiXHBWBn0IFnpinrlZydWNCZWBNdUlfygbuiOyAnFuO9sv2XXLpxWuIhp4TuujQaI6UQU/m2Crh8ZQIq677/33wBsgAYAg8UQcANMGFywgG+//cYB7dVXX3V5HgrNOf9Nx92AxH73SydoC22mbwCW6/WN9smnJ6y9d8Iq6w5ZbkGFAEmKERCD2Tc1YDbcoEyQufb0M087cwTAXWwLhc2/8x2LDyIyYiA6l7nkTIlvio7P1aKmLJNp84sXkx4WAmOaVCoRgnJrN+d70GmmErzBlLIETPwduQlsDDQFAJqEESkyn3xL0aaVMD3p2gbkViArGvXF2zxdDB4wmpmJEq2hwJ6e1GLf325drdelxE4XcB+1WjHxgvwCAdLGimrhESQAKfTE7/weRA9CVxDN+Ay7CdYMgAovbkQw/K8QC2F0ANZ/0xEPSIUSm2FxgVEu1c5oIs7a1Wv1SvX6mXI/y1igxGvZ+ShfQ6pj6Ue0TU/6dJfVVhW5jm+z+nEpQIJBwpqpB06Tk9In5UiP1z84LHP8DZtU6tttuw5ZkfyUkpKjvg9ggH6JSY5nN0yd79ksoLIsxyrkv4NYh0PlRhxBR0QsGvmvu6UrGpL3NTvdIjoCzOiLOMhplKK6J+s1JrN+T1erjUpnNKdslWSh3L5tq7ehubnVx+DBx6KYR9rDayOPBCBtZO+uomzEUPRH9fU3XSfEhGBVihhS5C0LE8Bt4aWXXnJlOL8xAf6bDsToxkbl1JYIulxO7dDmMEnYd+3kN6c9iX9ecZV29UCcxU8mOjMtWZax1DHbXFFk+wTmiN0usoUT5gtEbAb8cSfoFCClSbxmX7PR0TH78Scl8ZffTnFFnWXnyTEwRdtIp2VYunSDiOLczLe+liULxgQA4BJQUSrXCzlUYo0jpxDPDMBKlcUPHY6/CyT4LijE459r1EaNAZUPwwF8pnkXG8KEz4t7EX9HdH67chjBiIalN6J50Q6z+BYhrM1fr22UJmUomRjXduhyekyaGbXMlClZ07RD7p69Ylljcsj83tnlM88Ss7bF2WQCkMLI+y9/DyszzIjJwCodPyhTNGCxICKmYd7HHyX+9/+W7gGQbilBGRMCR8/seT0Xep3lDgwT7R0Sr2JKujYnMTecPA84mOTzZDLKz1MiPSnyYZdLTS6eA7o/wn5uXL8h7+x0O3zksCv/+6VXQoRraGwWMI1JWac93KTsJsFbVnaulOQE9SqObh4k0E+hk4piwiIQohkwFsS3bLkOAFi8EOvI4Y2SnGftCnFpnrATAkIR4BDmwU67UlJrQ4JRKan5G1P+9EzUYgcngEqfebFeRYwoCpSlflPa3HGwv9s6Wm5qO6Mp21ZbaVs2l1t5KYn/U+SZPWKdbvFtcLcD3Fhw+EWUXarPQlevx3uCIa1HL65TGTxsVm30SUyMMAAAHtgQ+iKU0EEhvk63faiKcUCSzxUMiZ0zUM7T5uVEU/qHfqPP6DtYDuJY4I5MVcrIUVn0IUrue4E55XB997wLBs+AIFKcSxEfseheu3rNbjdL16LdOOZSsq1801ZXdpMGN1U+UKkyiLg4p+cZgUkEKFMqm2cME8oQ8ABCAYxcxyT2hBIcAOGcUP8FQBLQoBdyEBIgoSvib74DiLgmspqFMoR+aryDpHRF7DJLxP7oiIwgI8qSGuvx3N0HD+wWIClvlsJT2LapQ35wMHQWRXYP3rlzp/uyUfcEID1U02XjK8MDZxIEMAp3ZAIBRP/NYERbAaTbK9hKO/RLeA+TZam+45wA6vfrv1AOkxGrba+U2/h6kYGhTgpeLK+Ucft2s33x5ddyolQIkCxvOFAWlFSKfZU7OKVrvzfYDSwJUcufq971h1dZj9Pr5FY9fYg+z3/nFfbTHFD4i6u4NCqLv6OyoyJDmaGcaKygJ6I/JifHFRw7YH3Kgz3Yp0DvgU4PFt69c5tEf+02u6XKTf6NjY0OuOjssrDSiknCyLHmAuTcc6OPBEPa6B5OlL+qHkBkxVsdnU2OJkK8U+BKC7oX+1nphOL6BaYkl5F6ZfyEeVXIF6dYvlGYwVF4f60o/A7FJBYUFguU5KckvVJGFhs0Ksg5VX5mYkwpKWK00i/B8CIwlIldDfFQFE1w2I+/AJj5F/Bz99yPgEZwpTLMzfSubxIjQufEy+mUdGYOyGJiWM9wNSGP0dyMGPeEUoqM9NvYsJjPcK+U7cT+1bkoRkI5lPe4ltDOQnn2l+gFK0RkXmm/rfT5LHdeApCW653Eb795DwRrI4CULSdSMhig72HV/i0PJiGTG/EN/RT1gjGNSr/kYCU/sZh0LVhCa5QDi225B4eGrVfbFnV19ZokKsvM0ZZbOejB5MeTJZ8vhfWg/MZ5NYAPvlLBF2olE9/Bdp5d4T/EZ/DIAU4ghH4IsYwIffREs9NjMvMrjCg/20oVfZCdnSnsmtXvMdeT0c/pEmfz8qOIAMKMwo7B9xOVN+J5JABpI3o1Ueaae4CJj7URkSlTYIRDXnB/WHOh63AhuiPqhcGBzR+FAQKaXFnrSqxKFqjUVLz/ezwOsa2twzd/nDb5kaVqgwBZ/NIUygJTSk7WPm9iTQATO4tgegegImCh1Hk2xJ8ccVJSALHoPbAh5S6CBWnjxiSB29SUEvDLGXdqclTMaFy6KtNmkvLMLymcZ0OFrk8DXK9euer+VtwKz3XSt5TLYBJcLcL9vB6/0T8JQPqNOjpxm5X1QJj45AbPEBgFQGK1/j0PlOR4z5MWZEJiDUemcklnyDUjePgj7rhSXe992nGWnU3w+MbJld1MxhWOIq8gS5FIl56Z58wpIzNiTlhQUbYHsS6SwbhLhEjuwoB4J3FsWgDkTEihRaQHGRuR2X520l0K5maxEg5L95Pr6Ys3bVLcnlgRLiTogYJPF/WkryfFANFj8RtOqIGNUo+VMDZquJ5HApDWszcTZT1wDzBJ0GVgekfEAZCCpe2BC3+AAgKDYZK6BU9yEpOb7xHt+J6/mch8T8aGs2fOOAPxsAvRkPExWf9mdY5YU7J0TOiZZvSZYF6hgounkWga6FGo8LxSXGDEvaTa1r1kVdNpBA1PTQwrHGRaFrtUARb79A25dWzvvv2eDSMwHkTNUM94sKHeHHwXfvcvfod/EoD0O3R64pb37gGcEglkRm+DWANLYkKxgv/eBxM3TFrqAvhwxE9ulNeACptRkk0CJkLwNApxWI9IjkSsOQW7sg/bgLUoKPqGQlTGZG5HiYx4GoDDywXk5u8LEGLWB+AQsaqUwI1tsrIklyEyAlBkhcBkz+YVsDeyRWAZDH5X8XX1yj9k/yQA6SF7IP/r1QGQSFIXEyChW2Ei4QT6MADSSp4NIAUosUHjz0q4R1B23bYonxG5qjIylDdJ4AroALpkgjil3OjozPD3wTsd4ImYUHRHyuQzflZE5POZ1Cw7pPNhM02ADosa6W6536hEOb4jlxKZJX6LtCEr6ZuVnJMApJX0UuKc36wH3ONa20kPCZgkQSwAEsD0KBxBbBtUfuxGpcrBhYEUtAAFqWNgQeSoIp8VObdwH/jiiy+d0Rw//pTS1la5nmiBycxLbwAYbGs4Jkteb4+zMMI56KMWKduJcySrxaQi9mFZW6q3+HZdeFgDYEEse9j7MAFID/sT+h+rH4DEJGV3FVhBmtgEaVQeFUDicTH5UYAjOuHkeeH8eSm3+1z0ZMsqcnIR/oOJHX3PhYuX5J2d6imLNylFLGC0AEjzzx9AgjnhOAoAwZZIbUsSt5aWVo+765EFkPPyZcLfWlvr+bzIt8V3i8t7WIdVApAe1ifzP1qvCJCibaOYgAGQXDH8CPUJYAqjGZOfz6ACp6f0tztHzjtIstvN0KDSzAgsAFtAF5BCX7YUINF0vncGKZEWxkWf0D+UizFuSmIbBzosDAEk36PsRwWMqHsCkOiFxPHQ9ADJ7LBQYW1DMYu+pUCexI8aINGhQUwK73wHs4E9wXQISeE3WExggYDLUgDCebzGBURsA04ZiGL0i+uI9L4gms0zrKXKoQ4P85EApIf56fwP1g1zfwCkSUW243+EovdRBKTw+OIBCeYUFNQwKA5YDO0MoBOuW/zO74hfgBplcOBYCSMiQ4AKkCo7Oh5FMKLmCUCaf4CJt4ejBwIgDUqcIWwDh8F4QPIpF2adqvyrz5qUSx3xoLDU7+G7lZ4Xzl/rezz4AB6rAZDFdVzNtWut7291HYBLXF1PT7fno0dBz3ZgbJ5xvyNJHSHJNXEkemD9eiAAEiIN3tqEVxRpNxhSYwA+CxNZuON/z3+ntzu/qTph0sa/x/99rxqHc+71+13fz2Ofg6J+EKzc9fPChyW+Xnyf1UylB7l2oU4b+cfSa8I97xj6jxNgf+jHsBjeUvYBdtABkLAW3u9IANL9eijx+6p7AH8c4sV4kRCNFTOkv3A+xGB30SQa9T459WeYpAtzIYgv84zJvw/fea0WzqTYu45w7l1f3uuDTg4TajlAWnQLb8O9ivzdvo8HzsUVXvht4Y8lq+m/Lr52yTPvfBn6j28wZKAfI4gZBT4WQ3ZwJsPn/Y4EIN2vhxK/r7oHENNQaJNknxASBmUUgMooR7SJioze9cH/vyPyLDANxCBOXXj3DwscZuG8qLhf/xuu023D/IpuHT99wi+6PO68XxU2D4p8H3fF3aet5Jy7r1j3Twt9ukzJUR8scwI/RQXd56Q7P4cy6RueC/oxFiFYER7uuEpgNbzfkQCk+/VQ4vdV90BYIfHhwR8Jz+1okDJsI+Dx8a5//D99ze8RwPDOadFnfvf//dz576lR+Ox/R/9w2d3Hr7+Jfo+HlDt/x+HJ3cXoU2Bv4Yfo3DvXhu9/9/fQ5HtUzfuWDr3PET2L+5x0j59D3xDuQr4mmBFKf3dtuMc14esEIIWeSLyvWw8wmF2xKQsU1B2AWjwR7vc5wqG4iaM/o09x34Uaz3/1619+/U10ydKzdTlACrda/j2UOw+qK5j4y5e38l8XA+bKr9y4M3H3wCcLMFpwZ7jP7RKAdJ8OSvyc6IG19MCDMIy13C9c8zACU6jbSt4TgLSSXkqck+iBRA/8Jj2QAKTfpJsTN0n0QKIHVtID/x/iX5Tx+4s9WQAAAABJRU5ErkJggg==;" vertex="1" parent="1">
          <mxGeometry x="-320" y="220" width="136.74" height="80.55" as="geometry" />
        </mxCell>
        <mxCell id="PTNWm7W7lWV_41qHVb1L-6" value="VPC" style="sketch=0;outlineConnect=0;gradientColor=none;html=1;whiteSpace=wrap;fontSize=12;fontStyle=0;shape=mxgraph.aws4.group;grIcon=mxgraph.aws4.group_vpc;strokeColor=#879196;fillColor=none;verticalAlign=top;align=left;spacingLeft=30;fontColor=#879196;dashed=0;" vertex="1" parent="1">
          <mxGeometry x="93.25" y="120" width="330" height="260" as="geometry" />
        </mxCell>
        <mxCell id="PTNWm7W7lWV_41qHVb1L-7" value="" style="outlineConnect=0;dashed=0;verticalLabelPosition=bottom;verticalAlign=top;align=center;html=1;shape=mxgraph.aws3.iam;fillColor=#759C3E;gradientColor=none;" vertex="1" parent="1">
          <mxGeometry x="-190" y="490" width="42" height="81" as="geometry" />
        </mxCell>
        <mxCell id="PTNWm7W7lWV_41qHVb1L-9" value="" style="whiteSpace=wrap;html=1;aspect=fixed;gradientColor=#ffffff;fillColor=none;" vertex="1" parent="1">
          <mxGeometry x="-250" y="460" width="160" height="160" as="geometry" />
        </mxCell>
        <mxCell id="PTNWm7W7lWV_41qHVb1L-20" style="edgeStyle=orthogonalEdgeStyle;rounded=0;orthogonalLoop=1;jettySize=auto;html=1;" edge="1" parent="1" source="PTNWm7W7lWV_41qHVb1L-19" target="PTNWm7W7lWV_41qHVb1L-6">
          <mxGeometry relative="1" as="geometry" />
        </mxCell>
        <mxCell id="PTNWm7W7lWV_41qHVb1L-29" value="Scheduled / Event Based Triggers" style="edgeLabel;html=1;align=center;verticalAlign=middle;resizable=0;points=[];" vertex="1" connectable="0" parent="PTNWm7W7lWV_41qHVb1L-20">
          <mxGeometry x="-0.1335" y="2" relative="1" as="geometry">
            <mxPoint as="offset" />
          </mxGeometry>
        </mxCell>
        <mxCell id="PTNWm7W7lWV_41qHVb1L-19" value="" style="outlineConnect=0;dashed=0;verticalLabelPosition=bottom;verticalAlign=top;align=center;html=1;shape=mxgraph.aws3.internet_gateway;fillColor=#F58534;gradientColor=none;" vertex="1" parent="1">
          <mxGeometry x="223.75" y="-120" width="69" height="72" as="geometry" />
        </mxCell>
        <mxCell id="PTNWm7W7lWV_41qHVb1L-23" value="" style="endArrow=classic;html=1;rounded=0;entryX=0.5;entryY=0;entryDx=0;entryDy=0;exitX=1;exitY=0;exitDx=0;exitDy=0;" edge="1" parent="1" target="PTNWm7W7lWV_41qHVb1L-9">
          <mxGeometry width="50" height="50" relative="1" as="geometry">
            <mxPoint x="223.75" y="260" as="sourcePoint" />
            <mxPoint x="270" y="250" as="targetPoint" />
          </mxGeometry>
        </mxCell>
        <mxCell id="PTNWm7W7lWV_41qHVb1L-28" value="&lt;b style=&quot;font-size: 12px ; background-color: rgb(248 , 249 , 250)&quot;&gt;AWS IAM&lt;/b&gt;&lt;span style=&quot;font-size: 12px ; background-color: rgb(248 , 249 , 250)&quot;&gt;&lt;/span&gt;&lt;br style=&quot;font-size: 12px ; background-color: rgb(248 , 249 , 250)&quot;&gt;&lt;span style=&quot;font-size: 12px ; background-color: rgb(248 , 249 , 250)&quot;&gt;( Secret Manager+&lt;br&gt;Basic Lambda Execution)&amp;nbsp;&lt;/span&gt;" style="edgeLabel;html=1;align=center;verticalAlign=middle;resizable=0;points=[];" vertex="1" connectable="0" parent="PTNWm7W7lWV_41qHVb1L-23">
          <mxGeometry x="0.3183" y="-2" relative="1" as="geometry">
            <mxPoint as="offset" />
          </mxGeometry>
        </mxCell>
        <mxCell id="PTNWm7W7lWV_41qHVb1L-24" value="&lt;b&gt;AWS Lamba&lt;/b&gt;&lt;br&gt;( Serverless Execution)" style="text;html=1;strokeColor=none;fillColor=none;align=center;verticalAlign=middle;whiteSpace=wrap;rounded=0;" vertex="1" parent="1">
          <mxGeometry x="203.25" y="300" width="110" height="80" as="geometry" />
        </mxCell>
        <mxCell id="PTNWm7W7lWV_41qHVb1L-26" value="" style="endArrow=classic;html=1;rounded=0;startArrow=none;" edge="1" parent="1" source="PTNWm7W7lWV_41qHVb1L-17" target="PTNWm7W7lWV_41qHVb1L-2">
          <mxGeometry width="50" height="50" relative="1" as="geometry">
            <mxPoint x="220" y="260" as="sourcePoint" />
            <mxPoint x="260" y="250" as="targetPoint" />
          </mxGeometry>
        </mxCell>
        <mxCell id="PTNWm7W7lWV_41qHVb1L-17" value="&lt;b&gt;AWS Secret Manager&lt;/b&gt;&lt;br&gt;Twitter OAuth Credentials" style="text;html=1;strokeColor=none;fillColor=none;align=center;verticalAlign=middle;whiteSpace=wrap;rounded=0;" vertex="1" parent="1">
          <mxGeometry x="-100" y="220" width="110" height="80" as="geometry" />
        </mxCell>
        <mxCell id="PTNWm7W7lWV_41qHVb1L-27" value="" style="endArrow=none;html=1;rounded=0;" edge="1" parent="1" target="PTNWm7W7lWV_41qHVb1L-17">
          <mxGeometry width="50" height="50" relative="1" as="geometry">
            <mxPoint x="220" y="260" as="sourcePoint" />
            <mxPoint x="-83.25999999999999" y="251.84381320130228" as="targetPoint" />
          </mxGeometry>
        </mxCell>
        <mxCell id="PTNWm7W7lWV_41qHVb1L-30" value="&lt;div style=&quot;text-align: center&quot;&gt;&lt;font face=&quot;helvetica&quot;&gt;&lt;span style=&quot;font-size: 11px ; background-color: rgb(255 , 255 , 255)&quot;&gt;&lt;b&gt;Internet&lt;/b&gt;&lt;/span&gt;&lt;/font&gt;&lt;/div&gt;" style="text;whiteSpace=wrap;html=1;" vertex="1" parent="1">
          <mxGeometry x="303.25" y="-90" width="120" height="30" as="geometry" />
        </mxCell>
      </root>
    </mxGraphModel>
  </diagram>
</mxfile>
